<svg id="svg" version="1.1" width="2400" height="1687" xmlns="http://www.w3.org/2000/svg" xmlns:xlink="http://www.w3.org/1999/xlink" style="display: block;"><g id="svgg"><path id="path0" d="M91.000 119.746 C 91.000 120.180,90.896 120.394,90.583 120.599 C 90.354 120.749,90.167 121.013,90.167 121.186 C 90.167 121.389,90.049 121.500,89.833 121.500 C 89.549 121.500,89.500 121.611,89.500 122.250 C 89.500 122.939,89.466 123.000,89.083 123.000 C 88.752 123.000,88.667 123.084,88.667 123.411 C 88.667 123.648,88.529 123.895,88.341 123.996 C 88.161 124.092,87.967 124.425,87.908 124.737 C 87.841 125.097,87.686 125.333,87.484 125.386 C 87.230 125.452,87.167 125.622,87.167 126.234 C 87.167 126.940,87.134 127.000,86.750 127.000 C 86.438 127.000,86.333 127.088,86.333 127.349 C 86.333 127.555,86.200 127.733,86.008 127.783 C 85.771 127.845,85.652 128.069,85.572 128.601 C 85.487 129.169,85.391 129.333,85.148 129.333 C 84.886 129.333,84.833 129.459,84.833 130.083 C 84.833 130.772,84.799 130.833,84.417 130.833 C 84.083 130.833,84.000 130.917,84.000 131.250 C 84.000 131.547,83.910 131.667,83.686 131.667 C 83.366 131.667,83.173 132.087,83.169 132.792 C 83.167 133.051,83.067 133.167,82.843 133.167 C 82.590 133.167,82.509 133.302,82.468 133.792 C 82.430 134.251,82.317 134.460,82.042 134.581 C 81.812 134.682,81.667 134.892,81.667 135.123 C 81.667 135.382,81.568 135.500,81.351 135.500 C 80.994 135.500,80.833 135.810,80.833 136.502 C 80.833 136.831,80.731 137.010,80.500 137.083 C 80.317 137.142,80.167 137.307,80.167 137.450 C 80.167 137.594,79.979 137.886,79.750 138.098 C 79.481 138.347,79.333 138.664,79.333 138.992 C 79.333 139.423,79.270 139.500,78.917 139.500 C 78.534 139.500,78.500 139.561,78.500 140.250 C 78.500 140.886,78.450 141.000,78.170 141.000 C 77.960 141.000,77.803 141.146,77.739 141.401 C 77.684 141.621,77.495 141.839,77.319 141.885 C 77.071 141.950,77.000 142.119,77.000 142.639 C 77.000 143.208,76.943 143.318,76.625 143.363 C 76.314 143.408,76.241 143.536,76.199 144.115 C 76.158 144.687,76.083 144.822,75.783 144.865 C 75.557 144.897,75.397 145.054,75.366 145.275 C 75.338 145.472,75.169 145.671,74.991 145.717 C 74.737 145.784,74.667 145.949,74.667 146.473 C 74.667 147.041,74.610 147.152,74.292 147.197 C 74.000 147.238,73.905 147.376,73.863 147.816 C 73.808 148.387,73.508 148.833,73.179 148.833 C 73.080 148.833,73.000 149.021,73.000 149.250 C 73.000 149.556,72.911 149.667,72.667 149.667 C 72.383 149.667,72.333 149.778,72.333 150.417 C 72.333 151.106,72.299 151.167,71.917 151.167 C 71.614 151.167,71.500 151.256,71.500 151.492 C 71.500 151.672,71.313 152.006,71.083 152.235 C 70.854 152.464,70.667 152.842,70.667 153.076 C 70.667 153.389,70.579 153.500,70.333 153.500 C 70.049 153.500,70.000 153.611,70.000 154.250 C 70.000 154.939,69.966 155.000,69.583 155.000 C 69.255 155.000,69.167 155.085,69.167 155.397 C 69.167 155.652,69.049 155.825,68.838 155.880 C 68.606 155.941,68.478 156.163,68.402 156.635 C 68.332 157.073,68.194 157.331,68.003 157.381 C 67.802 157.433,67.675 157.697,67.595 158.229 C 67.503 158.841,67.413 159.000,67.156 159.000 C 66.923 159.000,66.833 159.116,66.833 159.417 C 66.833 159.714,66.743 159.833,66.518 159.833 C 66.159 159.833,66.000 160.144,66.000 160.847 C 66.000 161.213,65.922 161.333,65.684 161.333 C 65.355 161.333,65.167 161.640,65.167 162.179 C 65.167 162.354,65.017 162.591,64.833 162.705 C 64.650 162.820,64.500 163.078,64.500 163.278 C 64.500 163.530,64.384 163.660,64.125 163.697 C 63.814 163.741,63.741 163.870,63.699 164.448 C 63.658 165.021,63.583 165.155,63.283 165.198 C 63.024 165.235,62.901 165.384,62.864 165.708 C 62.835 165.960,62.712 166.167,62.590 166.167 C 62.333 166.167,62.167 166.528,62.167 167.085 C 62.167 167.364,62.059 167.492,61.792 167.530 C 61.472 167.576,61.409 167.699,61.366 168.375 C 61.320 169.090,61.275 169.167,60.908 169.167 C 60.589 169.167,60.500 169.254,60.500 169.564 C 60.500 169.821,60.382 169.992,60.167 170.048 C 59.902 170.118,59.833 170.276,59.833 170.818 C 59.833 171.434,59.793 171.500,59.417 171.500 C 59.034 171.500,59.000 171.561,59.000 172.250 C 59.000 172.939,58.966 173.000,58.583 173.000 C 58.255 173.000,58.167 173.085,58.167 173.397 C 58.167 173.654,58.049 173.825,57.833 173.882 C 57.568 173.951,57.500 174.109,57.500 174.651 C 57.500 175.268,57.460 175.333,57.083 175.333 C 56.719 175.333,56.667 175.406,56.667 175.913 C 56.667 176.347,56.562 176.561,56.250 176.765 C 56.021 176.915,55.833 177.171,55.833 177.333 C 55.833 177.495,55.693 177.664,55.522 177.709 C 55.299 177.768,55.178 178.009,55.095 178.562 C 55.003 179.174,54.913 179.333,54.656 179.333 C 54.427 179.333,54.333 179.449,54.333 179.731 C 54.333 179.986,54.216 180.159,54.005 180.214 C 53.771 180.275,53.644 180.498,53.567 180.983 C 53.485 181.492,53.380 181.667,53.156 181.667 C 52.926 181.667,52.827 181.845,52.741 182.417 C 52.654 183.001,52.559 183.167,52.314 183.167 C 52.099 183.167,52.000 183.285,52.000 183.544 C 52.000 183.775,51.855 183.985,51.625 184.085 C 51.349 184.206,51.236 184.416,51.198 184.875 C 51.159 185.351,51.074 185.500,50.841 185.500 C 50.491 185.500,50.333 185.816,50.333 186.514 C 50.333 186.889,50.257 187.000,50.000 187.000 C 49.765 187.000,49.667 187.111,49.667 187.377 C 49.667 187.608,49.522 187.818,49.292 187.919 C 49.019 188.039,48.903 188.249,48.866 188.693 C 48.825 189.179,48.733 189.322,48.408 189.404 C 48.073 189.488,48.000 189.610,48.000 190.085 C 48.000 190.483,47.896 190.729,47.667 190.872 C 47.483 190.987,47.333 191.250,47.333 191.457 C 47.333 191.747,47.238 191.833,46.917 191.833 C 46.534 191.833,46.500 191.894,46.500 192.583 C 46.500 193.272,46.466 193.333,46.083 193.333 C 45.762 193.333,45.667 193.419,45.667 193.710 C 45.667 193.917,45.517 194.180,45.333 194.295 C 45.103 194.438,45.000 194.683,45.000 195.085 C 45.000 195.594,44.948 195.667,44.583 195.667 C 44.202 195.667,44.167 195.729,44.167 196.405 C 44.167 197.044,44.116 197.151,43.792 197.197 C 43.553 197.231,43.398 197.384,43.364 197.617 C 43.336 197.819,43.167 198.030,42.989 198.087 C 42.777 198.154,42.666 198.342,42.664 198.636 C 42.661 199.166,42.521 199.402,42.125 199.549 C 41.906 199.629,41.833 199.844,41.833 200.411 C 41.833 201.106,41.800 201.167,41.417 201.167 C 41.083 201.167,41.000 201.250,41.000 201.583 C 41.000 201.881,40.910 202.000,40.686 202.000 C 40.441 202.000,40.346 202.166,40.259 202.750 C 40.171 203.333,40.076 203.500,39.833 203.500 C 39.592 203.500,39.508 203.643,39.468 204.125 C 39.430 204.584,39.317 204.794,39.042 204.915 C 38.812 205.015,38.667 205.225,38.667 205.456 C 38.667 205.714,38.568 205.833,38.353 205.833 C 38.033 205.833,37.840 206.253,37.836 206.958 C 37.834 207.221,37.734 207.333,37.500 207.333 C 37.257 207.333,37.167 207.444,37.167 207.744 C 37.167 207.981,37.029 208.229,36.841 208.329 C 36.661 208.426,36.468 208.750,36.412 209.051 C 36.348 209.389,36.171 209.659,35.946 209.757 C 35.670 209.879,35.571 210.086,35.532 210.625 C 35.491 211.198,35.419 211.333,35.157 211.333 C 34.923 211.333,34.833 211.449,34.833 211.750 C 34.833 212.048,34.743 212.167,34.518 212.167 C 34.160 212.167,34.000 212.477,34.000 213.169 C 34.000 213.534,33.914 213.656,33.625 213.697 C 33.313 213.741,33.241 213.869,33.199 214.458 C 33.157 215.031,33.085 215.167,32.824 215.167 C 32.592 215.167,32.500 215.282,32.500 215.572 C 32.500 215.865,32.396 215.992,32.125 216.030 C 31.814 216.074,31.741 216.203,31.699 216.781 C 31.658 217.354,31.583 217.489,31.283 217.531 C 31.005 217.571,30.904 217.714,30.864 218.128 C 30.835 218.428,30.629 218.856,30.406 219.079 C 30.183 219.302,30.000 219.555,30.000 219.640 C 30.000 219.725,29.850 219.834,29.667 219.882 C 29.394 219.953,29.333 220.109,29.333 220.734 C 29.333 221.440,29.301 221.500,28.917 221.500 C 28.595 221.500,28.500 221.586,28.500 221.877 C 28.500 222.084,28.354 222.345,28.175 222.456 C 27.996 222.568,27.800 222.923,27.740 223.246 C 27.660 223.672,27.543 223.833,27.315 223.833 C 27.053 223.833,27.000 223.959,27.000 224.583 C 27.000 225.272,26.966 225.333,26.583 225.333 C 26.255 225.333,26.167 225.418,26.167 225.731 C 26.167 225.980,26.049 226.158,25.851 226.210 C 25.634 226.267,25.500 226.506,25.420 226.980 C 25.331 227.505,25.229 227.667,24.985 227.667 C 24.720 227.667,24.667 227.789,24.667 228.405 C 24.667 229.044,24.616 229.151,24.292 229.197 C 24.057 229.230,23.898 229.384,23.866 229.608 C 23.838 229.805,23.671 230.004,23.495 230.050 C 23.270 230.108,23.143 230.341,23.063 230.839 C 22.985 231.325,22.855 231.569,22.642 231.625 C 22.422 231.682,22.333 231.860,22.333 232.241 C 22.333 232.642,22.228 232.833,21.917 233.000 C 21.655 233.140,21.500 233.368,21.500 233.611 C 21.500 233.882,21.404 234.000,21.184 234.000 C 20.825 234.000,20.667 234.310,20.667 235.014 C 20.667 235.389,20.591 235.500,20.333 235.500 C 20.091 235.500,20.000 235.611,20.000 235.905 C 20.000 236.164,19.880 236.349,19.667 236.417 C 19.438 236.489,19.301 236.725,19.230 237.169 C 19.152 237.661,19.042 237.827,18.772 237.866 C 18.483 237.907,18.407 238.049,18.365 238.625 C 18.324 239.198,18.252 239.333,17.990 239.333 C 17.765 239.333,17.667 239.448,17.667 239.710 C 17.667 239.942,17.522 240.151,17.292 240.252 C 17.019 240.372,16.903 240.583,16.866 241.026 C 16.825 241.512,16.733 241.656,16.408 241.737 C 16.052 241.827,16.000 241.934,16.000 242.575 C 16.000 243.210,15.949 243.317,15.625 243.363 C 15.384 243.398,15.231 243.551,15.197 243.792 C 15.163 244.033,15.029 244.167,14.822 244.167 C 14.552 244.167,14.500 244.287,14.500 244.917 C 14.500 245.606,14.466 245.667,14.083 245.667 C 13.719 245.667,13.667 245.739,13.667 246.246 C 13.667 246.680,13.562 246.894,13.250 247.099 C 13.021 247.249,12.833 247.504,12.833 247.666 C 12.833 247.828,12.683 248.000,12.500 248.048 C 12.236 248.117,12.167 248.276,12.167 248.806 C 12.167 249.375,12.110 249.485,11.792 249.530 C 11.527 249.568,11.402 249.714,11.366 250.025 C 11.335 250.288,11.188 250.499,11.002 250.548 C 10.802 250.600,10.649 250.842,10.579 251.216 C 10.508 251.595,10.356 251.832,10.151 251.886 C 9.897 251.952,9.833 252.122,9.833 252.734 C 9.833 253.440,9.801 253.500,9.417 253.500 C 9.083 253.500,9.000 253.583,9.000 253.917 C 9.000 254.218,8.910 254.333,8.677 254.333 C 8.422 254.333,8.330 254.491,8.241 255.083 C 8.154 255.667,8.059 255.833,7.814 255.833 C 7.553 255.833,7.500 255.959,7.500 256.583 C 7.500 257.272,7.466 257.333,7.083 257.333 C 6.750 257.333,6.667 257.417,6.667 257.750 C 6.667 258.048,6.577 258.167,6.351 258.167 C 5.992 258.167,5.833 258.477,5.833 259.180 C 5.833 259.544,5.755 259.667,5.521 259.667 C 5.286 259.667,5.183 259.831,5.103 260.333 C 5.039 260.733,4.864 261.082,4.665 261.207 C 4.482 261.320,4.333 261.528,4.333 261.667 C 4.333 261.807,4.165 261.995,3.958 262.085 C 3.669 262.213,3.572 262.411,3.532 262.958 C 3.491 263.522,3.417 263.667,3.168 263.667 C 2.996 263.667,2.806 263.824,2.745 264.016 C 2.684 264.209,2.491 264.509,2.317 264.683 C 2.143 264.857,2.000 265.225,2.000 265.500 C 2.000 265.922,1.935 266.000,1.583 266.000 C 1.202 266.000,1.167 266.062,1.167 266.738 C 1.167 267.377,1.116 267.484,0.792 267.530 C 0.551 267.564,0.398 267.717,0.363 267.958 C 0.334 268.165,0.240 268.333,0.155 268.333 C 0.062 268.333,0.000 270.903,0.000 274.750 L 0.000 281.167 200.000 281.167 L 400.000 281.167 400.000 275.500 C 400.000 272.197,399.937 269.833,399.848 269.833 C 399.764 269.833,399.644 269.524,399.580 269.146 C 399.500 268.673,399.366 268.434,399.149 268.377 C 398.951 268.325,398.833 268.147,398.833 267.897 C 398.833 267.585,398.745 267.500,398.417 267.500 C 398.034 267.500,398.000 267.439,398.000 266.750 C 398.000 266.126,397.947 266.000,397.685 266.000 C 397.457 266.000,397.340 265.838,397.260 265.413 C 397.200 265.090,397.004 264.734,396.825 264.623 C 396.646 264.511,396.500 264.250,396.500 264.043 C 396.500 263.753,396.405 263.667,396.083 263.667 C 395.702 263.667,395.667 263.605,395.667 262.928 C 395.667 262.336,395.601 262.168,395.333 262.083 C 395.150 262.025,395.000 261.833,395.000 261.655 C 395.000 261.478,394.920 261.333,394.821 261.333 C 394.492 261.333,394.192 260.887,394.137 260.316 C 394.096 259.881,393.999 259.738,393.717 259.698 C 393.417 259.655,393.342 259.521,393.301 258.948 C 393.259 258.370,393.186 258.241,392.875 258.197 C 392.604 258.158,392.500 258.032,392.500 257.738 C 392.500 257.448,392.408 257.333,392.176 257.333 C 391.915 257.333,391.843 257.198,391.801 256.625 C 391.759 256.036,391.687 255.908,391.375 255.863 C 391.086 255.822,391.000 255.701,391.000 255.335 C 391.000 254.644,390.840 254.333,390.482 254.333 C 390.257 254.333,390.167 254.214,390.167 253.917 C 390.167 253.615,390.077 253.500,389.843 253.500 C 389.581 253.500,389.509 253.364,389.468 252.792 C 389.429 252.253,389.330 252.045,389.054 251.924 C 388.825 251.824,388.652 251.555,388.584 251.197 C 388.516 250.832,388.363 250.600,388.156 250.545 C 387.931 250.487,387.833 250.315,387.833 249.981 C 387.833 249.611,387.756 249.500,387.500 249.500 C 387.266 249.500,387.166 249.388,387.164 249.125 C 387.160 248.420,386.967 248.000,386.647 248.000 C 386.432 248.000,386.333 247.881,386.333 247.623 C 386.333 247.392,386.188 247.182,385.958 247.081 C 385.683 246.960,385.570 246.751,385.532 246.292 C 385.492 245.817,385.407 245.667,385.176 245.667 C 384.943 245.667,384.845 245.491,384.759 244.917 C 384.670 244.324,384.578 244.167,384.323 244.167 C 384.090 244.167,384.000 244.051,384.000 243.750 C 384.000 243.417,383.917 243.333,383.583 243.333 C 383.202 243.333,383.167 243.271,383.167 242.595 C 383.167 242.013,383.099 241.834,382.847 241.754 C 382.633 241.687,382.490 241.436,382.417 241.000 C 382.345 240.574,382.199 240.313,381.997 240.249 C 381.827 240.195,381.664 239.986,381.636 239.784 C 381.603 239.554,381.447 239.397,381.217 239.365 C 380.917 239.322,380.842 239.187,380.801 238.615 C 380.759 238.036,380.686 237.908,380.375 237.863 C 380.071 237.820,380.000 237.704,380.000 237.248 C 380.000 236.886,379.888 236.607,379.687 236.466 C 379.514 236.345,379.345 236.097,379.310 235.915 C 379.273 235.724,379.088 235.561,378.873 235.530 C 378.551 235.484,378.500 235.376,378.500 234.738 C 378.500 234.062,378.465 234.000,378.083 234.000 C 377.762 234.000,377.667 233.914,377.667 233.623 C 377.667 233.416,377.517 233.153,377.333 233.039 C 377.120 232.905,377.000 232.650,377.000 232.328 C 377.000 231.957,376.893 231.778,376.592 231.640 C 376.287 231.501,376.171 231.302,376.134 230.852 C 376.097 230.416,375.980 230.205,375.708 230.085 C 375.502 229.995,375.333 229.782,375.333 229.612 C 375.333 229.441,375.183 229.263,375.000 229.215 C 374.767 229.154,374.667 228.988,374.667 228.661 C 374.667 227.977,374.505 227.667,374.149 227.667 C 373.921 227.667,373.833 227.547,373.833 227.239 C 373.833 226.680,373.551 226.167,373.244 226.167 C 373.095 226.167,373.000 226.005,373.000 225.750 C 373.000 225.444,372.911 225.333,372.667 225.333 C 372.409 225.333,372.333 225.222,372.333 224.847 C 372.333 224.155,372.176 223.833,371.837 223.833 C 371.621 223.833,371.513 223.651,371.433 223.150 C 371.356 222.665,371.229 222.441,370.995 222.380 C 370.784 222.325,370.667 222.152,370.667 221.897 C 370.667 221.611,370.573 221.500,370.333 221.500 C 370.091 221.500,370.000 221.389,370.000 221.094 C 370.000 220.476,369.705 219.833,369.421 219.833 C 369.281 219.833,369.167 219.692,369.167 219.519 C 369.167 219.346,368.979 219.082,368.750 218.932 C 368.438 218.727,368.333 218.514,368.333 218.079 C 368.333 217.572,368.281 217.500,367.917 217.500 C 367.540 217.500,367.500 217.434,367.500 216.818 C 367.500 216.282,367.430 216.117,367.176 216.051 C 366.998 216.004,366.829 215.805,366.801 215.608 C 366.769 215.384,366.610 215.230,366.375 215.197 C 366.051 215.151,366.000 215.044,366.000 214.405 C 366.000 213.729,365.965 213.667,365.583 213.667 C 365.207 213.667,365.167 213.601,365.167 212.984 C 365.167 212.442,365.098 212.284,364.833 212.215 C 364.618 212.159,364.500 211.988,364.500 211.731 C 364.500 211.420,364.411 211.333,364.092 211.333 C 363.725 211.333,363.680 211.256,363.634 210.542 C 363.591 209.866,363.528 209.742,363.208 209.697 C 362.941 209.659,362.833 209.531,362.833 209.252 C 362.833 208.695,362.667 208.333,362.410 208.333 C 362.288 208.333,362.165 208.127,362.136 207.875 C 362.099 207.551,361.976 207.401,361.717 207.365 C 361.417 207.322,361.342 207.187,361.301 206.615 C 361.259 206.036,361.186 205.908,360.875 205.863 C 360.616 205.827,360.500 205.697,360.500 205.445 C 360.500 205.244,360.355 204.990,360.178 204.879 C 359.991 204.762,359.833 204.448,359.803 204.130 C 359.762 203.710,359.663 203.571,359.375 203.530 C 359.086 203.489,359.000 203.368,359.000 203.002 C 359.000 202.310,358.840 202.000,358.482 202.000 C 358.257 202.000,358.167 201.881,358.167 201.583 C 358.167 201.278,358.078 201.167,357.833 201.167 C 357.572 201.167,357.500 201.056,357.500 200.656 C 357.500 200.038,357.236 199.500,356.932 199.500 C 356.802 199.500,356.666 199.228,356.604 198.845 C 356.532 198.392,356.397 198.156,356.166 198.083 C 355.954 198.016,355.833 197.831,355.833 197.572 C 355.833 197.251,355.747 197.167,355.417 197.167 C 355.034 197.167,355.000 197.106,355.000 196.417 C 355.000 195.778,354.951 195.667,354.667 195.667 C 354.421 195.667,354.333 195.556,354.333 195.242 C 354.333 195.009,354.146 194.631,353.917 194.402 C 353.688 194.172,353.500 193.838,353.500 193.659 C 353.500 193.423,353.386 193.333,353.083 193.333 C 352.701 193.333,352.667 193.272,352.667 192.583 C 352.667 191.944,352.617 191.833,352.333 191.833 C 352.089 191.833,352.000 191.722,352.000 191.417 C 352.000 191.188,351.920 191.000,351.821 191.000 C 351.484 191.000,351.167 190.523,351.167 190.015 C 351.167 189.611,351.081 189.485,350.750 189.402 C 350.396 189.313,350.333 189.201,350.333 188.660 C 350.333 188.176,350.256 187.998,350.011 187.920 C 349.833 187.864,349.664 187.652,349.636 187.450 C 349.603 187.220,349.447 187.064,349.217 187.031 C 348.917 186.989,348.842 186.854,348.801 186.281 C 348.759 185.703,348.686 185.574,348.375 185.530 C 348.057 185.485,348.000 185.375,348.000 184.806 C 348.000 184.282,347.929 184.117,347.676 184.051 C 347.498 184.004,347.329 183.805,347.301 183.608 C 347.270 183.387,347.110 183.230,346.884 183.198 C 346.584 183.155,346.509 183.021,346.467 182.448 C 346.425 181.870,346.352 181.741,346.042 181.697 C 345.750 181.655,345.667 181.535,345.667 181.155 C 345.667 180.886,345.523 180.523,345.348 180.348 C 345.173 180.173,345.004 179.892,344.972 179.723 C 344.940 179.555,344.749 179.393,344.549 179.365 C 344.251 179.322,344.176 179.186,344.134 178.615 C 344.095 178.078,343.996 177.879,343.708 177.752 C 343.502 177.662,343.333 177.464,343.333 177.313 C 343.333 177.162,343.146 176.915,342.917 176.765 C 342.604 176.561,342.500 176.347,342.500 175.913 C 342.500 175.444,342.436 175.333,342.167 175.333 C 341.933 175.333,341.833 175.221,341.831 174.958 C 341.827 174.253,341.634 173.833,341.314 173.833 C 341.090 173.833,341.000 173.714,341.000 173.417 C 341.000 173.083,340.917 173.000,340.583 173.000 C 340.201 173.000,340.167 172.939,340.167 172.250 C 340.167 171.626,340.114 171.500,339.852 171.500 C 339.607 171.500,339.513 171.334,339.425 170.750 C 339.337 170.158,339.245 170.000,338.990 170.000 C 338.756 170.000,338.667 169.884,338.667 169.583 C 338.667 169.250,338.583 169.167,338.250 169.167 C 337.866 169.167,337.833 169.107,337.833 168.401 C 337.833 167.788,337.770 167.619,337.516 167.552 C 337.314 167.500,337.159 167.263,337.092 166.903 C 337.033 166.592,336.844 166.262,336.671 166.169 C 336.498 166.076,336.333 165.832,336.303 165.625 C 336.269 165.384,336.116 165.231,335.875 165.197 C 335.551 165.151,335.500 165.044,335.500 164.405 C 335.500 163.778,335.450 163.667,335.167 163.667 C 334.951 163.667,334.833 163.556,334.833 163.353 C 334.833 163.180,334.646 162.915,334.417 162.765 C 334.104 162.561,334.000 162.347,334.000 161.913 C 334.000 161.406,333.948 161.333,333.583 161.333 C 333.207 161.333,333.167 161.268,333.167 160.651 C 333.167 160.116,333.097 159.951,332.843 159.884 C 332.665 159.837,332.496 159.638,332.468 159.441 C 332.436 159.220,332.277 159.063,332.050 159.031 C 331.741 158.987,331.676 158.857,331.634 158.198 C 331.591 157.539,331.526 157.408,331.218 157.365 C 330.929 157.323,330.842 157.184,330.801 156.698 C 330.764 156.249,330.649 156.039,330.375 155.919 C 330.145 155.818,330.000 155.608,330.000 155.377 C 330.000 155.115,329.901 155.000,329.676 155.000 C 329.415 155.000,329.343 154.864,329.301 154.292 C 329.260 153.716,329.184 153.574,328.895 153.533 C 328.625 153.494,328.515 153.328,328.436 152.836 C 328.365 152.391,328.229 152.156,328.000 152.083 C 327.787 152.016,327.667 151.831,327.667 151.572 C 327.667 151.278,327.575 151.167,327.333 151.167 C 327.076 151.167,327.000 151.056,327.000 150.680 C 327.000 149.977,326.841 149.667,326.482 149.667 C 326.272 149.667,326.167 149.549,326.167 149.316 C 326.167 149.123,325.979 148.817,325.750 148.637 C 325.470 148.417,325.333 148.144,325.333 147.806 C 325.333 147.449,325.240 147.278,325.012 147.218 C 324.789 147.160,324.656 146.927,324.577 146.463 C 324.501 146.014,324.363 145.766,324.158 145.713 C 323.990 145.669,323.829 145.472,323.801 145.275 C 323.769 145.051,323.610 144.897,323.375 144.863 C 323.051 144.817,323.000 144.711,323.000 144.072 C 323.000 143.456,322.947 143.333,322.681 143.333 C 322.438 143.333,322.335 143.171,322.247 142.646 C 322.167 142.173,322.032 141.934,321.815 141.877 C 321.617 141.825,321.500 141.647,321.500 141.397 C 321.500 141.085,321.411 141.000,321.083 141.000 C 320.701 141.000,320.667 140.939,320.667 140.250 C 320.667 139.611,320.617 139.500,320.333 139.500 C 320.114 139.500,320.000 139.389,320.000 139.175 C 320.000 138.686,319.643 138.000,319.390 138.000 C 319.263 138.000,319.167 137.821,319.167 137.587 C 319.167 137.287,319.054 137.145,318.759 137.071 C 318.420 136.986,318.342 136.851,318.300 136.276 C 318.259 135.703,318.185 135.574,317.875 135.530 C 317.616 135.493,317.500 135.363,317.500 135.112 C 317.500 134.911,317.355 134.656,317.178 134.546 C 316.991 134.429,316.833 134.115,316.803 133.797 C 316.763 133.381,316.662 133.238,316.384 133.198 C 316.084 133.155,316.009 133.021,315.967 132.448 C 315.925 131.870,315.852 131.741,315.542 131.697 C 315.270 131.658,315.167 131.532,315.167 131.238 C 315.167 130.948,315.075 130.833,314.843 130.833 C 314.581 130.833,314.509 130.698,314.468 130.125 C 314.425 129.536,314.353 129.408,314.042 129.363 C 313.743 129.321,313.666 129.202,313.664 128.780 C 313.661 128.169,313.535 127.936,313.125 127.785 C 312.965 127.726,312.833 127.525,312.833 127.339 C 312.833 127.111,312.724 127.000,312.500 127.000 C 312.248 127.000,312.166 126.888,312.164 126.542 C 312.160 125.756,311.979 125.333,311.647 125.333 C 311.422 125.333,311.333 125.213,311.333 124.909 C 311.333 124.670,311.151 124.315,310.917 124.098 C 310.687 123.886,310.500 123.552,310.500 123.356 C 310.500 123.118,310.396 123.000,310.186 123.000 C 309.941 123.000,309.846 122.834,309.759 122.250 C 309.670 121.658,309.578 121.500,309.323 121.500 C 309.099 121.500,309.000 121.385,309.000 121.123 C 309.000 120.892,308.855 120.682,308.625 120.581 C 308.349 120.460,308.236 120.251,308.198 119.792 L 308.147 119.167 274.172 119.167 L 240.198 119.167 239.956 119.877 C 239.671 120.712,239.716 121.207,240.503 125.917 C 240.580 126.375,240.648 127.620,240.654 128.683 C 240.661 129.747,240.749 130.853,240.850 131.142 L 241.033 131.667 270.664 131.667 C 300.154 131.667,300.295 131.668,300.382 132.000 C 300.434 132.199,300.609 132.333,300.818 132.333 C 301.119 132.333,301.167 132.434,301.167 133.065 C 301.167 133.707,301.218 133.810,301.583 133.902 C 301.909 133.983,302.000 134.113,302.000 134.494 C 302.000 134.777,302.128 135.072,302.306 135.199 C 302.475 135.319,302.664 135.623,302.726 135.875 C 302.801 136.177,302.949 136.333,303.160 136.333 C 303.418 136.333,303.491 136.472,303.532 137.042 C 303.575 137.631,303.647 137.759,303.958 137.803 C 304.230 137.842,304.333 137.968,304.333 138.262 C 304.333 138.489,304.431 138.667,304.557 138.667 C 304.810 138.667,305.167 139.353,305.167 139.841 C 305.167 140.056,305.280 140.167,305.500 140.167 C 305.757 140.167,305.833 140.278,305.833 140.653 C 305.833 141.356,305.992 141.667,306.351 141.667 C 306.577 141.667,306.667 141.786,306.667 142.083 C 306.667 142.417,306.750 142.500,307.083 142.500 C 307.465 142.500,307.500 142.562,307.500 143.239 C 307.500 143.821,307.568 143.999,307.820 144.079 C 308.033 144.147,308.176 144.398,308.250 144.833 C 308.322 145.259,308.468 145.520,308.670 145.584 C 308.840 145.638,309.002 145.848,309.031 146.050 C 309.064 146.283,309.220 146.436,309.458 146.470 C 309.783 146.516,309.833 146.623,309.833 147.262 C 309.833 147.874,309.887 148.000,310.148 148.000 C 310.376 148.000,310.493 148.162,310.573 148.587 C 310.634 148.910,310.829 149.266,311.008 149.377 C 311.187 149.489,311.333 149.750,311.333 149.957 C 311.333 150.247,311.428 150.333,311.750 150.333 C 312.133 150.333,312.167 150.394,312.167 151.083 C 312.167 151.722,312.216 151.833,312.500 151.833 C 312.735 151.833,312.833 151.944,312.833 152.210 C 312.833 152.442,312.978 152.651,313.208 152.752 C 313.484 152.873,313.597 153.082,313.635 153.541 C 313.677 154.043,313.766 154.185,314.093 154.267 C 314.436 154.353,314.500 154.470,314.500 155.007 C 314.500 155.487,314.578 155.669,314.817 155.745 C 314.991 155.800,315.180 156.030,315.237 156.256 C 315.301 156.514,315.459 156.667,315.660 156.667 C 315.918 156.667,315.991 156.805,316.032 157.375 C 316.075 157.964,316.147 158.092,316.458 158.137 C 316.757 158.179,316.834 158.298,316.836 158.720 C 316.839 159.331,316.965 159.564,317.375 159.715 C 317.535 159.774,317.667 159.975,317.667 160.161 C 317.667 160.386,317.776 160.500,317.990 160.500 C 318.252 160.500,318.324 160.636,318.365 161.208 C 318.408 161.797,318.480 161.926,318.792 161.970 C 319.066 162.009,319.167 162.135,319.167 162.439 C 319.167 162.988,319.451 163.500,319.756 163.500 C 319.905 163.500,320.000 163.662,320.000 163.917 C 320.000 164.218,320.090 164.333,320.324 164.333 C 320.585 164.333,320.657 164.469,320.699 165.042 C 320.738 165.589,320.835 165.787,321.125 165.915 C 321.331 166.005,321.500 166.182,321.500 166.307 C 321.500 166.433,321.688 166.683,321.917 166.863 C 322.216 167.099,322.333 167.351,322.333 167.762 C 322.333 168.211,322.401 168.333,322.648 168.333 C 322.893 168.333,322.987 168.499,323.075 169.083 C 323.163 169.676,323.255 169.833,323.510 169.833 C 323.744 169.833,323.833 169.949,323.833 170.250 C 323.833 170.583,323.917 170.667,324.250 170.667 C 324.633 170.667,324.667 170.728,324.667 171.417 C 324.667 172.038,324.720 172.167,324.979 172.167 C 325.215 172.167,325.317 172.332,325.400 172.850 C 325.478 173.335,325.605 173.559,325.838 173.620 C 326.049 173.675,326.167 173.848,326.167 174.103 C 326.167 174.415,326.255 174.500,326.583 174.500 C 326.965 174.500,327.000 174.562,327.000 175.239 C 327.000 175.827,327.067 175.999,327.328 176.081 C 327.538 176.148,327.695 176.398,327.767 176.781 C 327.837 177.153,327.991 177.406,328.180 177.455 C 328.355 177.501,328.503 177.719,328.532 177.975 C 328.568 178.286,328.694 178.432,328.958 178.470 C 329.276 178.515,329.333 178.625,329.333 179.194 C 329.333 179.721,329.404 179.883,329.661 179.950 C 329.841 179.997,330.040 180.197,330.102 180.393 C 330.164 180.589,330.354 180.848,330.524 180.968 C 330.723 181.108,330.833 181.390,330.833 181.759 C 330.833 182.257,330.888 182.333,331.240 182.333 C 331.600 182.333,331.653 182.416,331.699 183.042 C 331.741 183.631,331.813 183.759,332.125 183.803 C 332.396 183.842,332.500 183.968,332.500 184.262 C 332.500 184.556,332.591 184.667,332.833 184.667 C 333.117 184.667,333.167 184.778,333.167 185.413 C 333.167 186.071,333.216 186.173,333.583 186.265 C 333.926 186.351,334.000 186.471,334.000 186.938 C 334.000 187.383,334.091 187.548,334.417 187.697 C 334.688 187.821,334.833 188.023,334.833 188.277 C 334.833 188.556,334.928 188.667,335.167 188.667 C 335.424 188.667,335.500 188.778,335.500 189.153 C 335.500 189.845,335.657 190.167,335.997 190.167 C 336.210 190.167,336.319 190.346,336.396 190.822 C 336.468 191.275,336.603 191.510,336.834 191.583 C 337.046 191.651,337.167 191.836,337.167 192.095 C 337.167 192.389,337.258 192.500,337.500 192.500 C 337.734 192.500,337.834 192.612,337.836 192.875 C 337.840 193.580,338.033 194.000,338.353 194.000 C 338.576 194.000,338.667 194.120,338.667 194.417 C 338.667 194.646,338.747 194.833,338.845 194.833 C 339.187 194.833,339.500 195.313,339.500 195.837 C 339.500 196.218,339.589 196.388,339.821 196.449 C 340.044 196.507,340.178 196.739,340.256 197.203 C 340.332 197.653,340.470 197.900,340.675 197.954 C 340.844 197.998,341.004 198.195,341.032 198.392 C 341.064 198.616,341.224 198.770,341.458 198.803 C 341.783 198.849,341.833 198.956,341.833 199.595 C 341.833 200.208,341.887 200.333,342.149 200.333 C 342.497 200.333,342.667 200.643,342.667 201.279 C 342.667 201.558,342.778 201.727,343.000 201.785 C 343.216 201.841,343.333 202.012,343.333 202.269 C 343.333 202.582,343.422 202.667,343.750 202.667 C 344.133 202.667,344.167 202.728,344.167 203.417 C 344.167 204.106,344.201 204.167,344.583 204.167 C 344.948 204.167,345.000 204.239,345.000 204.749 C 345.000 205.150,345.103 205.395,345.333 205.539 C 345.517 205.653,345.667 205.916,345.667 206.123 C 345.667 206.412,345.762 206.500,346.074 206.500 C 346.442 206.500,346.487 206.577,346.533 207.292 C 346.576 207.967,346.638 208.091,346.958 208.137 C 347.224 208.174,347.333 208.302,347.333 208.575 C 347.333 208.817,347.454 208.993,347.656 209.045 C 347.890 209.107,347.992 209.304,348.031 209.773 C 348.073 210.289,348.156 210.427,348.449 210.469 C 348.749 210.511,348.824 210.646,348.866 211.219 C 348.908 211.797,348.981 211.926,349.292 211.970 C 349.563 212.008,349.667 212.135,349.667 212.428 C 349.667 212.718,349.759 212.833,349.990 212.833 C 350.252 212.833,350.324 212.969,350.365 213.542 C 350.408 214.131,350.480 214.259,350.792 214.303 C 351.080 214.344,351.167 214.466,351.167 214.831 C 351.167 215.523,351.327 215.833,351.684 215.833 C 351.910 215.833,352.000 215.952,352.000 216.250 C 352.000 216.547,352.090 216.667,352.314 216.667 C 352.560 216.667,352.654 216.834,352.744 217.436 C 352.826 217.979,352.949 218.228,353.164 218.284 C 353.352 218.334,353.509 218.581,353.575 218.930 C 353.633 219.241,353.828 219.574,354.007 219.671 C 354.196 219.771,354.333 220.019,354.333 220.256 C 354.333 220.547,354.425 220.667,354.647 220.667 C 354.967 220.667,355.160 221.087,355.164 221.792 C 355.166 222.055,355.266 222.167,355.500 222.167 C 355.735 222.167,355.833 222.278,355.833 222.544 C 355.833 222.775,355.978 222.985,356.208 223.085 C 356.484 223.206,356.597 223.416,356.635 223.875 C 356.680 224.412,356.744 224.500,357.093 224.500 C 357.464 224.500,357.500 224.566,357.500 225.250 C 357.500 225.889,357.549 226.000,357.833 226.000 C 358.078 226.000,358.167 226.111,358.167 226.417 C 358.167 226.750,358.250 226.833,358.583 226.833 C 358.966 226.833,359.000 226.895,359.000 227.580 C 359.000 228.238,359.050 228.339,359.417 228.432 C 359.770 228.520,359.833 228.633,359.833 229.174 C 359.833 229.658,359.911 229.836,360.156 229.913 C 360.334 229.970,360.502 230.181,360.531 230.383 C 360.564 230.613,360.720 230.769,360.949 230.802 C 361.249 230.845,361.324 230.979,361.366 231.552 C 361.408 232.130,361.481 232.259,361.792 232.303 C 362.083 232.345,362.167 232.465,362.167 232.845 C 362.167 233.114,362.310 233.477,362.485 233.652 C 362.660 233.827,362.829 234.108,362.862 234.277 C 362.894 234.445,363.088 234.607,363.293 234.637 C 363.608 234.681,363.667 234.793,363.667 235.349 C 363.667 235.899,363.736 236.035,364.083 236.167 C 364.313 236.254,364.500 236.459,364.500 236.622 C 364.500 236.786,364.650 237.013,364.833 237.128 C 365.017 237.242,365.167 237.490,365.167 237.679 C 365.167 238.156,365.466 238.667,365.746 238.667 C 365.896 238.667,365.998 238.891,366.032 239.292 C 366.070 239.751,366.183 239.960,366.458 240.081 C 366.665 240.172,366.833 240.385,366.833 240.555 C 366.833 240.725,366.976 240.902,367.151 240.948 C 367.476 241.033,367.660 241.456,367.664 242.125 C 367.666 242.380,367.767 242.500,367.979 242.500 C 368.215 242.500,368.317 242.666,368.400 243.183 C 368.478 243.669,368.605 243.892,368.838 243.953 C 369.049 244.008,369.167 244.181,369.167 244.436 C 369.167 244.749,369.255 244.833,369.583 244.833 C 369.966 244.833,370.000 244.894,370.000 245.583 C 370.000 246.205,370.053 246.333,370.312 246.333 C 370.548 246.333,370.651 246.499,370.733 247.017 C 370.810 247.494,370.939 247.726,371.162 247.784 C 371.355 247.834,371.501 248.041,371.532 248.309 C 371.568 248.620,371.694 248.766,371.958 248.803 C 372.276 248.848,372.333 248.959,372.333 249.527 C 372.333 250.058,372.403 250.216,372.667 250.285 C 372.850 250.333,373.000 250.505,373.000 250.667 C 373.000 250.829,373.188 251.085,373.417 251.235 C 373.729 251.439,373.833 251.653,373.833 252.087 C 373.833 252.594,373.885 252.667,374.250 252.667 C 374.627 252.667,374.667 252.732,374.667 253.349 C 374.667 253.884,374.736 254.049,374.991 254.116 C 375.169 254.163,375.338 254.362,375.366 254.559 C 375.398 254.783,375.557 254.937,375.792 254.970 C 376.116 255.016,376.167 255.123,376.167 255.762 C 376.167 256.438,376.202 256.500,376.583 256.500 C 376.960 256.500,377.000 256.566,377.000 257.182 C 377.000 257.718,377.070 257.883,377.324 257.949 C 377.502 257.996,377.671 258.195,377.699 258.392 C 377.730 258.613,377.890 258.770,378.116 258.802 C 378.425 258.846,378.490 258.977,378.533 259.635 C 378.575 260.286,378.643 260.425,378.938 260.467 C 379.208 260.506,379.318 260.672,379.396 261.156 C 379.467 261.604,379.597 261.820,379.832 261.881 C 380.059 261.941,380.167 262.108,380.167 262.401 C 380.167 262.718,380.253 262.833,380.490 262.833 C 380.752 262.833,380.824 262.969,380.865 263.542 C 380.908 264.131,380.980 264.259,381.292 264.303 C 381.563 264.342,381.667 264.468,381.667 264.762 C 381.667 264.984,381.747 265.167,381.845 265.167 C 382.184 265.167,382.500 265.644,382.500 266.155 C 382.500 266.556,382.572 266.667,382.833 266.667 C 383.091 266.667,383.167 266.778,383.167 267.153 C 383.167 267.856,383.325 268.167,383.684 268.167 C 383.910 268.167,384.000 268.286,384.000 268.583 C 384.000 268.912,384.084 269.000,384.401 269.000 C 384.762 269.000,384.807 269.080,384.859 269.833 L 384.917 270.667 199.508 270.667 C 55.302 270.667,14.144 270.622,14.300 270.467 C 14.410 270.357,14.500 269.982,14.500 269.633 C 14.500 269.111,14.558 269.000,14.833 269.000 C 15.075 269.000,15.167 268.889,15.167 268.595 C 15.167 268.302,15.270 268.175,15.542 268.137 C 15.852 268.092,15.925 267.964,15.967 267.385 C 16.009 266.813,16.084 266.678,16.384 266.635 C 16.662 266.596,16.763 266.452,16.803 266.036 C 16.833 265.719,16.991 265.405,17.178 265.288 C 17.355 265.177,17.500 264.922,17.500 264.722 C 17.500 264.470,17.616 264.340,17.875 264.303 C 18.186 264.259,18.259 264.130,18.301 263.552 C 18.342 262.979,18.417 262.845,18.717 262.802 C 18.950 262.769,19.103 262.613,19.137 262.375 C 19.166 262.168,19.331 261.924,19.504 261.831 C 19.677 261.738,19.867 261.408,19.925 261.097 C 19.993 260.737,20.147 260.500,20.349 260.448 C 20.603 260.381,20.667 260.212,20.667 259.599 C 20.667 258.893,20.699 258.833,21.083 258.833 C 21.417 258.833,21.500 258.750,21.500 258.417 C 21.500 258.116,21.590 258.000,21.823 258.000 C 22.078 258.000,22.170 257.842,22.259 257.250 C 22.346 256.666,22.441 256.500,22.686 256.500 C 22.947 256.500,23.000 256.374,23.000 255.750 C 23.000 255.061,23.034 255.000,23.417 255.000 C 23.750 255.000,23.833 254.917,23.833 254.583 C 23.833 254.282,23.923 254.167,24.156 254.167 C 24.412 254.167,24.503 254.009,24.592 253.417 C 24.680 252.833,24.774 252.667,25.019 252.667 C 25.267 252.667,25.333 252.544,25.333 252.087 C 25.333 251.653,25.438 251.439,25.750 251.235 C 25.979 251.085,26.167 250.820,26.167 250.647 C 26.167 250.475,26.277 250.333,26.411 250.333 C 26.714 250.333,27.000 249.822,27.000 249.280 C 27.000 249.012,27.114 248.842,27.333 248.785 C 27.553 248.727,27.667 248.558,27.667 248.285 C 27.667 248.014,27.780 247.843,27.995 247.786 C 28.228 247.725,28.356 247.503,28.432 247.026 C 28.515 246.507,28.622 246.340,28.895 246.301 C 29.184 246.259,29.260 246.118,29.301 245.542 C 29.343 244.969,29.415 244.833,29.676 244.833 C 29.910 244.833,30.000 244.718,30.000 244.417 C 30.000 244.119,30.090 244.000,30.316 244.000 C 30.673 244.000,30.833 243.690,30.833 242.998 C 30.833 242.632,30.920 242.511,31.208 242.470 C 31.519 242.426,31.592 242.297,31.634 241.719 C 31.676 241.146,31.751 241.011,32.051 240.969 C 32.280 240.936,32.436 240.780,32.469 240.550 C 32.498 240.348,32.666 240.136,32.844 240.080 C 33.089 240.002,33.167 239.824,33.167 239.340 C 33.167 238.803,33.231 238.687,33.573 238.601 C 33.900 238.519,33.990 238.376,34.032 237.874 C 34.070 237.416,34.183 237.206,34.458 237.085 C 34.665 236.995,34.833 236.782,34.833 236.612 C 34.833 236.441,34.983 236.263,35.167 236.215 C 35.436 236.145,35.500 235.988,35.500 235.397 C 35.500 234.729,35.536 234.667,35.917 234.667 C 36.219 234.667,36.333 234.577,36.333 234.341 C 36.333 234.162,36.521 233.828,36.750 233.598 C 36.979 233.369,37.167 232.991,37.167 232.758 C 37.167 232.444,37.254 232.333,37.500 232.333 C 37.783 232.333,37.833 232.222,37.833 231.595 C 37.833 230.956,37.884 230.849,38.208 230.803 C 38.447 230.769,38.602 230.616,38.636 230.383 C 38.664 230.181,38.827 229.972,38.997 229.918 C 39.198 229.854,39.345 229.594,39.415 229.176 C 39.489 228.737,39.626 228.506,39.845 228.449 C 40.104 228.381,40.167 228.215,40.167 227.599 C 40.167 226.893,40.199 226.833,40.583 226.833 C 40.917 226.833,41.000 226.750,41.000 226.417 C 41.000 226.119,41.090 226.000,41.316 226.000 C 41.675 226.000,41.833 225.690,41.833 224.986 C 41.833 224.611,41.909 224.500,42.167 224.500 C 42.428 224.500,42.500 224.389,42.500 223.988 C 42.500 223.477,42.816 223.000,43.155 223.000 C 43.253 223.000,43.333 222.818,43.333 222.595 C 43.333 222.302,43.437 222.175,43.708 222.137 C 44.019 222.092,44.092 221.964,44.134 221.385 C 44.176 220.813,44.251 220.678,44.551 220.635 C 44.810 220.599,44.932 220.449,44.969 220.125 C 44.999 219.865,45.124 219.667,45.259 219.667 C 45.406 219.667,45.536 219.418,45.601 219.013 C 45.681 218.508,45.795 218.337,46.103 218.260 C 46.447 218.174,46.500 218.061,46.500 217.413 C 46.500 216.728,46.534 216.667,46.917 216.667 C 47.245 216.667,47.333 216.582,47.333 216.269 C 47.333 216.012,47.451 215.841,47.667 215.785 C 47.932 215.716,48.000 215.558,48.000 215.016 C 48.000 214.399,48.040 214.333,48.417 214.333 C 48.798 214.333,48.833 214.271,48.833 213.595 C 48.833 212.956,48.884 212.849,49.208 212.803 C 49.443 212.770,49.602 212.616,49.634 212.392 C 49.662 212.195,49.831 211.996,50.009 211.949 C 50.263 211.883,50.333 211.718,50.333 211.194 C 50.333 210.625,50.390 210.515,50.708 210.470 C 50.996 210.429,51.096 210.290,51.136 209.872 C 51.170 209.516,51.329 209.235,51.594 209.061 C 51.817 208.915,52.000 208.662,52.000 208.500 C 52.000 208.338,52.150 208.166,52.333 208.118 C 52.606 208.047,52.667 207.891,52.667 207.266 C 52.667 206.560,52.699 206.500,53.083 206.500 C 53.411 206.500,53.500 206.415,53.500 206.103 C 53.500 205.848,53.618 205.675,53.829 205.620 C 54.062 205.559,54.189 205.335,54.267 204.850 C 54.349 204.332,54.452 204.167,54.688 204.167 C 54.947 204.167,55.000 204.038,55.000 203.417 C 55.000 202.728,55.034 202.667,55.417 202.667 C 55.745 202.667,55.833 202.582,55.833 202.269 C 55.833 202.014,55.951 201.841,56.162 201.786 C 56.395 201.725,56.522 201.502,56.600 201.017 C 56.680 200.516,56.788 200.333,57.003 200.333 C 57.343 200.333,57.500 200.012,57.500 199.320 C 57.500 198.944,57.576 198.833,57.833 198.833 C 58.068 198.833,58.167 198.722,58.167 198.456 C 58.167 198.225,58.312 198.015,58.542 197.915 C 58.811 197.796,58.931 197.584,58.966 197.161 C 59.001 196.743,59.122 196.526,59.383 196.411 C 59.633 196.301,59.767 196.076,59.803 195.703 C 59.833 195.385,59.991 195.071,60.178 194.954 C 60.355 194.844,60.500 194.589,60.500 194.388 C 60.500 194.137,60.616 194.007,60.875 193.970 C 61.186 193.926,61.259 193.797,61.301 193.219 C 61.342 192.647,61.417 192.511,61.716 192.469 C 61.924 192.439,62.106 192.274,62.141 192.083 C 62.175 191.900,62.345 191.616,62.518 191.452 C 62.691 191.288,62.833 190.937,62.833 190.672 C 62.833 190.299,62.918 190.178,63.208 190.137 C 63.519 190.092,63.592 189.964,63.634 189.385 C 63.676 188.814,63.751 188.678,64.049 188.635 C 64.255 188.606,64.441 188.439,64.477 188.252 C 64.511 188.069,64.681 187.821,64.853 187.701 C 65.053 187.560,65.167 187.280,65.167 186.925 C 65.167 186.471,65.243 186.350,65.583 186.265 C 65.950 186.173,66.000 186.071,66.000 185.413 C 66.000 184.728,66.034 184.667,66.417 184.667 C 66.750 184.667,66.833 184.583,66.833 184.250 C 66.833 183.944,66.922 183.833,67.167 183.833 C 67.451 183.833,67.500 183.722,67.500 183.083 C 67.500 182.399,67.536 182.333,67.907 182.333 C 68.256 182.333,68.320 182.246,68.365 181.708 C 68.403 181.249,68.516 181.040,68.792 180.919 C 69.022 180.818,69.167 180.608,69.167 180.377 C 69.167 180.119,69.266 180.000,69.481 180.000 C 69.800 180.000,69.993 179.580,69.998 178.875 C 69.999 178.612,70.099 178.500,70.333 178.500 C 70.590 178.500,70.667 178.389,70.667 178.019 C 70.667 177.685,70.764 177.513,70.989 177.455 C 71.201 177.399,71.350 177.164,71.424 176.768 C 71.488 176.429,71.636 176.167,71.763 176.167 C 72.069 176.167,72.333 175.631,72.333 175.011 C 72.333 174.611,72.406 174.500,72.667 174.500 C 72.911 174.500,73.000 174.389,73.000 174.083 C 73.000 173.786,73.090 173.667,73.316 173.667 C 73.673 173.667,73.833 173.356,73.833 172.665 C 73.833 172.299,73.920 172.178,74.208 172.137 C 74.520 172.092,74.592 171.964,74.635 171.375 C 74.676 170.802,74.748 170.667,75.010 170.667 C 75.241 170.667,75.333 170.552,75.333 170.262 C 75.333 169.968,75.437 169.842,75.708 169.803 C 76.019 169.759,76.092 169.630,76.134 169.052 C 76.176 168.479,76.251 168.345,76.551 168.302 C 76.842 168.261,76.927 168.122,76.969 167.620 C 77.002 167.218,77.137 166.917,77.344 166.788 C 77.521 166.677,77.667 166.463,77.667 166.311 C 77.667 166.157,77.849 165.990,78.083 165.932 C 78.450 165.839,78.500 165.738,78.500 165.080 C 78.500 164.395,78.534 164.333,78.917 164.333 C 79.238 164.333,79.333 164.247,79.333 163.957 C 79.333 163.750,79.483 163.487,79.667 163.372 C 79.897 163.228,80.000 162.983,80.000 162.582 C 80.000 162.072,80.052 162.000,80.417 162.000 C 80.799 162.000,80.833 161.939,80.833 161.250 C 80.833 160.561,80.867 160.500,81.250 160.500 C 81.578 160.500,81.667 160.415,81.667 160.103 C 81.667 159.853,81.784 159.675,81.982 159.623 C 82.199 159.566,82.333 159.327,82.413 158.854 C 82.502 158.329,82.604 158.167,82.848 158.167 C 83.114 158.167,83.167 158.044,83.167 157.428 C 83.167 156.789,83.217 156.683,83.542 156.637 C 83.776 156.603,83.936 156.449,83.968 156.225 C 83.996 156.028,84.156 155.831,84.325 155.787 C 84.530 155.734,84.668 155.486,84.744 155.037 C 84.822 154.573,84.956 154.340,85.179 154.282 C 85.411 154.221,85.500 154.051,85.500 153.670 C 85.500 153.146,85.813 152.667,86.155 152.667 C 86.253 152.667,86.333 152.479,86.333 152.250 C 86.333 151.953,86.424 151.833,86.647 151.833 C 86.967 151.833,87.160 151.413,87.164 150.708 C 87.166 150.445,87.266 150.333,87.500 150.333 C 87.742 150.333,87.833 150.222,87.833 149.928 C 87.833 149.669,87.954 149.484,88.166 149.417 C 88.397 149.344,88.532 149.108,88.604 148.655 C 88.681 148.180,88.790 148.000,89.003 148.000 C 89.343 148.000,89.500 147.679,89.500 146.986 C 89.500 146.611,89.576 146.500,89.833 146.500 C 90.072 146.500,90.167 146.389,90.167 146.110 C 90.167 145.856,90.312 145.654,90.583 145.530 C 90.905 145.384,91.000 145.215,91.000 144.793 C 91.000 144.385,91.096 144.204,91.375 144.081 C 91.665 143.954,91.762 143.755,91.801 143.208 C 91.843 142.636,91.915 142.500,92.176 142.500 C 92.408 142.500,92.500 142.385,92.500 142.095 C 92.500 141.802,92.604 141.675,92.875 141.637 C 93.187 141.592,93.259 141.464,93.301 140.875 C 93.347 140.249,93.400 140.167,93.760 140.167 C 94.113 140.167,94.167 140.091,94.167 139.587 C 94.167 139.153,94.271 138.939,94.583 138.735 C 94.813 138.585,95.000 138.329,95.000 138.167 C 95.000 138.005,95.150 137.833,95.333 137.785 C 95.597 137.716,95.667 137.558,95.667 137.027 C 95.667 136.459,95.724 136.348,96.042 136.303 C 96.306 136.266,96.432 136.120,96.468 135.809 C 96.498 135.545,96.645 135.334,96.832 135.285 C 97.033 135.233,97.185 134.991,97.256 134.608 C 97.327 134.233,97.486 133.974,97.684 133.911 C 97.932 133.833,98.000 133.651,98.000 133.072 C 98.000 132.395,98.035 132.333,98.417 132.333 C 98.722 132.333,98.833 132.244,98.833 132.000 C 98.833 131.668,98.944 131.667,127.730 131.667 L 156.626 131.667 156.802 131.208 C 156.899 130.956,157.012 129.662,157.054 128.333 C 157.095 126.978,157.247 125.404,157.398 124.750 C 157.851 122.795,157.984 120.696,157.707 119.875 L 157.469 119.167 124.234 119.167 L 91.000 119.167 91.000 119.746 " stroke="none" fill="#000000" fill-rule="evenodd"></path><path id="path1" d="M198.583 10.333 C 198.527 10.425,198.639 10.500,198.833 10.500 C 199.027 10.500,199.140 10.425,199.083 10.333 C 199.027 10.242,198.914 10.167,198.833 10.167 C 198.752 10.167,198.640 10.242,198.583 10.333 " stroke="none" fill="#00ffff" fill-rule="evenodd"></path><path id="path2" d="M196.125 14.793 C 195.965 14.829,195.833 14.927,195.833 15.012 C 195.833 15.207,196.014 15.205,196.329 15.007 C 196.628 14.817,196.521 14.705,196.125 14.793 M201.498 15.034 C 201.683 15.206,201.833 15.431,201.833 15.534 C 201.833 15.638,201.873 15.683,201.921 15.634 C 202.092 15.463,201.693 14.722,201.430 14.722 C 201.210 14.722,201.222 14.777,201.498 15.034 M202.000 16.583 C 202.000 16.721,202.122 16.833,202.270 16.833 C 202.492 16.833,202.503 16.788,202.333 16.583 C 202.219 16.446,202.098 16.333,202.063 16.333 C 202.028 16.333,202.000 16.446,202.000 16.583 M194.458 18.448 C 194.298 18.490,194.167 18.631,194.167 18.761 C 194.167 18.948,194.236 18.938,194.500 18.711 C 194.786 18.466,194.931 18.288,194.792 18.353 C 194.769 18.363,194.619 18.406,194.458 18.448 M192.846 21.902 C 192.696 22.082,192.697 22.166,192.851 22.261 C 192.987 22.345,193.008 22.314,192.915 22.164 C 192.819 22.009,192.853 21.972,193.028 22.039 C 193.177 22.096,193.278 22.040,193.278 21.901 C 193.278 21.601,193.095 21.602,192.846 21.902 M204.416 21.835 C 204.359 21.927,204.433 22.049,204.580 22.105 C 204.899 22.228,205.077 22.093,204.924 21.844 C 204.785 21.620,204.551 21.616,204.416 21.835 M207.500 28.839 C 207.500 28.927,207.579 29.000,207.677 29.000 C 207.774 29.000,207.814 29.063,207.767 29.139 C 207.720 29.215,207.783 29.278,207.908 29.278 C 208.033 29.278,208.099 29.184,208.055 29.068 C 207.954 28.807,207.500 28.619,207.500 28.839 M209.689 33.783 C 209.677 33.985,209.774 34.210,209.905 34.283 C 210.036 34.357,210.143 34.490,210.142 34.579 C 210.142 34.669,210.230 34.771,210.337 34.807 C 210.485 34.856,210.486 34.786,210.344 34.519 C 210.240 34.325,210.088 34.167,210.006 34.167 C 209.924 34.167,209.824 33.998,209.784 33.792 L 209.712 33.417 209.689 33.783 M185.006 39.989 C 184.750 40.468,184.795 40.530,185.167 40.211 C 185.524 39.905,185.600 39.667,185.339 39.667 C 185.251 39.667,185.101 39.812,185.006 39.989 M182.917 45.500 C 182.751 45.683,182.699 45.833,182.802 45.833 C 182.904 45.833,183.069 45.683,183.167 45.500 C 183.265 45.317,183.317 45.167,183.282 45.167 C 183.247 45.167,183.083 45.317,182.917 45.500 M214.500 45.504 C 214.500 45.599,214.616 45.722,214.757 45.776 C 215.148 45.926,215.194 45.764,214.826 45.534 C 214.620 45.405,214.500 45.394,214.500 45.504 M181.174 49.319 C 181.045 49.560,181.043 49.667,181.166 49.667 C 181.368 49.667,181.588 49.199,181.451 49.062 C 181.401 49.012,181.277 49.128,181.174 49.319 M179.742 53.048 C 179.368 53.479,179.318 53.846,179.662 53.631 C 179.836 53.522,180.014 53.298,180.057 53.133 C 180.147 52.791,179.999 52.751,179.742 53.048 M217.881 53.217 C 218.320 53.673,218.430 53.659,218.174 53.181 C 218.072 52.990,217.881 52.833,217.750 52.833 C 217.582 52.833,217.620 52.945,217.881 53.217 M177.949 57.176 C 177.876 57.458,177.902 57.484,178.096 57.322 C 178.362 57.102,178.411 56.833,178.186 56.833 C 178.105 56.833,177.999 56.988,177.949 57.176 M219.434 57.069 C 219.490 57.215,219.609 57.333,219.698 57.333 C 219.917 57.333,219.780 56.955,219.531 56.871 C 219.409 56.831,219.372 56.907,219.434 57.069 M220.667 60.833 C 220.667 60.925,220.760 60.981,220.875 60.958 C 220.990 60.935,221.072 60.992,221.058 61.083 C 221.043 61.175,221.137 61.347,221.266 61.465 C 221.579 61.752,221.564 61.498,221.241 61.037 C 220.971 60.652,220.667 60.544,220.667 60.833 M222.169 64.363 C 222.168 64.517,222.276 64.752,222.409 64.885 C 222.542 65.018,222.614 65.164,222.568 65.210 C 222.523 65.255,222.603 65.337,222.747 65.392 C 222.971 65.478,222.978 65.443,222.796 65.143 C 222.679 64.950,222.491 64.633,222.377 64.438 C 222.214 64.156,222.171 64.141,222.169 64.363 M175.000 64.917 C 174.882 65.059,174.823 65.212,174.869 65.258 C 174.915 65.304,175.049 65.225,175.167 65.083 C 175.284 64.941,175.343 64.788,175.298 64.742 C 175.252 64.696,175.118 64.775,175.000 64.917 M225.734 73.309 C 226.087 73.706,226.167 73.743,226.167 73.506 C 226.167 73.417,225.998 73.257,225.792 73.148 C 225.419 72.953,225.418 72.953,225.734 73.309 M171.562 73.411 C 171.511 73.546,171.507 73.752,171.554 73.870 C 171.602 73.987,171.646 73.921,171.654 73.722 C 171.661 73.524,171.760 73.323,171.875 73.277 C 172.038 73.211,172.037 73.190,171.870 73.180 C 171.752 73.173,171.614 73.277,171.562 73.411 M170.277 77.304 C 169.962 77.652,169.924 77.833,170.167 77.833 C 170.258 77.833,170.333 77.727,170.333 77.597 C 170.333 77.467,170.427 77.328,170.542 77.287 C 170.656 77.246,170.706 77.164,170.652 77.105 C 170.598 77.046,170.429 77.136,170.277 77.304 M227.000 77.090 C 227.000 77.140,227.150 77.342,227.333 77.538 C 227.517 77.735,227.667 77.812,227.667 77.710 C 227.667 77.608,227.549 77.406,227.405 77.262 C 227.134 76.991,227.000 76.934,227.000 77.090 M231.000 88.080 C 231.000 88.136,231.159 88.346,231.354 88.549 L 231.708 88.917 231.520 88.551 C 231.334 88.189,231.000 87.887,231.000 88.080 M163.929 95.588 C 163.773 95.826,163.682 96.110,163.726 96.218 C 163.779 96.348,163.812 96.335,163.820 96.180 C 163.827 96.050,163.958 95.805,164.110 95.637 C 164.262 95.469,164.347 95.292,164.299 95.244 C 164.251 95.196,164.084 95.351,163.929 95.588 M233.529 95.645 C 233.742 95.908,233.941 96.102,233.972 96.076 C 234.072 95.990,233.465 95.167,233.301 95.167 C 233.213 95.167,233.316 95.382,233.529 95.645 M160.265 108.315 C 160.090 108.384,159.921 108.608,159.889 108.813 C 159.856 109.032,159.902 109.144,159.999 109.084 C 160.091 109.027,160.167 108.899,160.167 108.800 C 160.167 108.701,160.298 108.520,160.458 108.399 C 160.784 108.151,160.735 108.130,160.265 108.315 M237.512 108.448 C 237.549 108.881,237.810 109.248,237.822 108.885 C 237.828 108.684,237.758 108.473,237.667 108.417 C 237.575 108.360,237.505 108.374,237.512 108.448 M238.263 111.645 C 238.439 111.817,238.613 111.931,238.649 111.899 C 238.754 111.806,238.309 111.333,238.117 111.333 C 238.021 111.333,238.086 111.474,238.263 111.645 M158.505 114.744 C 158.393 114.879,158.328 115.059,158.359 115.146 C 158.391 115.232,158.551 115.122,158.716 114.901 C 159.035 114.473,158.846 114.333,158.505 114.744 M157.500 119.217 C 157.500 119.258,157.601 119.582,157.724 119.937 C 157.986 120.692,157.841 122.802,157.388 124.833 C 157.235 125.521,157.062 127.208,157.004 128.583 C 156.946 129.958,156.833 131.233,156.754 131.417 C 156.612 131.746,156.615 131.746,156.972 131.433 C 157.273 131.168,157.334 130.933,157.336 130.016 C 157.338 129.411,157.450 128.392,157.586 127.751 C 157.722 127.111,157.913 125.578,158.012 124.345 C 158.113 123.078,158.294 121.904,158.429 121.643 C 158.740 121.041,158.712 120.369,158.349 119.750 C 158.107 119.336,157.500 118.955,157.500 119.217 M239.542 119.375 C 239.049 119.993,238.935 120.798,239.236 121.531 C 239.424 121.990,239.581 123.010,239.669 124.354 C 239.745 125.511,239.926 126.856,240.071 127.342 C 240.217 127.834,240.333 128.835,240.333 129.595 C 240.333 130.744,240.389 131.026,240.681 131.357 C 240.980 131.696,241.011 131.704,240.904 131.417 C 240.836 131.233,240.724 129.808,240.655 128.250 C 240.586 126.692,240.452 125.215,240.356 124.969 C 240.261 124.723,240.096 123.710,239.990 122.719 C 239.884 121.728,239.769 120.868,239.733 120.809 C 239.698 120.750,239.781 120.385,239.918 119.997 C 240.055 119.609,240.167 119.263,240.167 119.229 C 240.167 119.076,239.691 119.187,239.542 119.375 M156.667 140.958 C 156.667 141.038,156.775 141.249,156.908 141.426 C 157.142 141.739,157.147 141.737,157.055 141.372 C 156.960 140.996,156.667 140.683,156.667 140.958 M240.618 141.333 C 240.570 141.517,240.599 141.667,240.682 141.667 C 240.765 141.667,240.833 141.635,240.833 141.597 C 240.833 141.559,240.879 141.409,240.934 141.264 C 240.990 141.119,240.961 141.000,240.871 141.000 C 240.780 141.000,240.666 141.150,240.618 141.333 M157.663 145.826 C 157.763 146.013,157.917 146.167,158.006 146.167 C 158.279 146.167,158.184 145.924,157.823 145.699 C 157.506 145.501,157.494 145.511,157.663 145.826 M239.750 145.833 C 239.584 146.017,239.532 146.167,239.635 146.167 C 239.738 146.167,239.902 146.017,240.000 145.833 C 240.098 145.650,240.150 145.500,240.115 145.500 C 240.080 145.500,239.916 145.650,239.750 145.833 M238.926 148.922 C 238.695 149.097,238.671 149.167,238.843 149.169 C 239.046 149.171,239.044 149.197,238.833 149.333 C 238.696 149.422,238.658 149.495,238.750 149.495 C 239.048 149.495,239.283 149.257,239.280 148.958 C 239.279 148.798,239.272 148.669,239.264 148.672 C 239.256 148.675,239.104 148.787,238.926 148.922 M160.667 156.072 C 160.667 156.383,160.985 156.581,161.177 156.390 C 161.263 156.303,161.188 156.156,160.996 156.036 C 160.725 155.867,160.667 155.873,160.667 156.072 M236.530 156.181 C 236.338 156.487,236.348 156.522,236.613 156.471 C 236.778 156.439,236.938 156.282,236.969 156.123 C 237.045 155.726,236.793 155.759,236.530 156.181 M166.959 167.777 C 167.075 167.824,167.119 167.949,167.058 168.056 C 166.997 168.163,167.008 168.194,167.083 168.126 C 167.158 168.058,167.339 168.095,167.485 168.207 C 167.647 168.332,167.627 168.267,167.433 168.039 C 167.258 167.834,167.033 167.673,166.933 167.680 C 166.828 167.687,166.840 167.729,166.959 167.777 M227.936 170.927 C 227.804 171.270,227.942 171.458,228.163 171.237 C 228.249 171.151,228.258 170.981,228.183 170.860 C 228.076 170.686,228.023 170.700,227.936 170.927 M224.389 174.929 C 224.284 175.151,224.261 175.333,224.338 175.333 C 224.483 175.333,224.742 174.686,224.638 174.583 C 224.606 174.551,224.494 174.706,224.389 174.929 M176.584 178.001 C 176.751 178.185,176.921 178.301,176.963 178.259 C 177.054 178.169,176.578 177.667,176.403 177.667 C 176.336 177.667,176.418 177.817,176.584 178.001 M220.782 178.089 C 220.525 178.315,220.381 178.500,220.462 178.500 C 220.542 178.500,220.785 178.313,221.000 178.083 C 221.498 177.553,221.388 177.556,220.782 178.089 M182.500 181.762 C 182.500 181.925,182.967 182.333,183.155 182.333 C 183.253 182.333,183.183 182.183,183.000 182.000 C 182.664 181.664,182.500 181.586,182.500 181.762 M214.625 182.026 C 214.406 182.257,214.390 182.333,214.563 182.333 C 214.841 182.333,215.237 181.892,215.050 181.791 C 214.977 181.752,214.785 181.858,214.625 182.026 M184.167 182.699 C 184.167 182.859,185.006 183.216,185.119 183.103 C 185.159 183.063,185.035 182.981,184.843 182.920 C 184.652 182.859,184.530 182.752,184.574 182.682 C 184.617 182.613,184.543 182.556,184.409 182.556 C 184.276 182.556,184.167 182.620,184.167 182.699 M212.792 182.862 C 212.631 183.030,212.571 183.167,212.657 183.167 C 212.743 183.167,212.861 183.090,212.918 182.997 C 212.976 182.904,213.088 182.868,213.167 182.917 C 213.246 182.965,213.353 182.937,213.404 182.854 C 213.588 182.556,213.078 182.563,212.792 182.862 M209.023 184.348 C 208.807 184.523,208.699 184.667,208.783 184.667 C 209.006 184.667,209.597 184.209,209.500 184.111 C 209.454 184.066,209.240 184.172,209.023 184.348 M191.233 184.860 C 191.111 185.058,191.597 185.510,191.907 185.487 C 192.004 185.480,191.989 185.436,191.874 185.389 C 191.759 185.343,191.695 185.255,191.731 185.194 C 191.768 185.133,191.698 184.990,191.575 184.877 C 191.409 184.724,191.320 184.720,191.233 184.860 M206.093 184.922 C 205.915 185.057,205.859 185.167,205.968 185.167 C 206.292 185.167,206.408 185.095,206.440 184.875 C 206.477 184.623,206.491 184.621,206.093 184.922 M198.172 185.592 C 198.165 185.837,198.522 186.167,198.795 186.167 C 199.071 186.167,199.578 185.689,199.444 185.556 C 199.392 185.503,199.228 185.582,199.079 185.730 C 198.734 186.076,198.558 186.071,198.347 185.708 C 198.253 185.548,198.175 185.495,198.172 185.592 " stroke="none" fill="#0055ff" fill-rule="evenodd"></path><path id="path3" d="M198.089 10.658 C 198.029 10.754,198.025 10.833,198.079 10.833 C 198.134 10.833,198.098 10.983,198.000 11.167 C 197.902 11.350,197.712 11.500,197.577 11.500 C 197.403 11.500,197.333 11.694,197.333 12.179 C 197.333 12.741,196.872 13.672,196.817 13.220 C 196.782 12.934,196.532 13.941,196.517 14.432 C 196.505 14.806,196.389 14.997,196.094 15.131 C 195.800 15.265,195.691 15.445,195.699 15.783 C 195.717 16.655,195.667 16.811,195.333 16.917 C 195.078 16.998,195.000 17.169,195.000 17.648 C 195.000 18.107,194.889 18.369,194.583 18.636 C 194.350 18.838,194.167 19.178,194.167 19.407 C 194.167 19.632,193.979 20.018,193.750 20.266 C 193.393 20.651,193.221 21.333,193.307 22.022 C 193.314 22.080,193.192 22.118,193.035 22.105 C 192.833 22.090,192.737 22.230,192.704 22.583 C 192.634 23.353,192.494 23.883,192.389 23.778 C 192.184 23.573,191.833 24.173,191.833 24.727 C 191.833 25.162,191.749 25.338,191.504 25.415 C 191.259 25.493,191.148 25.727,191.067 26.340 C 191.007 26.791,190.891 27.119,190.809 27.068 C 190.625 26.954,190.167 28.012,190.167 28.552 C 190.167 28.770,190.020 29.081,189.840 29.244 C 189.660 29.407,189.519 29.587,189.526 29.645 C 189.616 30.363,189.459 30.859,189.089 31.028 C 188.862 31.131,188.706 31.263,188.742 31.320 C 188.885 31.552,188.556 32.583,188.338 32.583 C 188.066 32.583,187.797 33.451,187.934 33.887 C 188.002 34.102,187.926 34.217,187.672 34.284 C 187.457 34.340,187.349 34.468,187.402 34.605 C 187.450 34.731,187.417 34.833,187.328 34.833 C 187.239 34.833,187.176 34.890,187.186 34.958 C 187.284 35.579,187.134 36.333,186.913 36.333 C 186.628 36.333,186.333 36.976,186.333 37.594 C 186.333 37.954,186.178 38.078,185.798 38.022 C 185.732 38.012,185.719 38.108,185.767 38.235 C 185.816 38.362,185.776 38.516,185.678 38.576 C 185.580 38.637,185.500 38.978,185.500 39.335 C 185.500 39.771,185.408 40.035,185.218 40.141 C 185.039 40.241,184.901 40.595,184.842 41.108 C 184.768 41.743,184.686 41.912,184.457 41.894 C 184.297 41.881,184.157 41.937,184.146 42.019 C 184.134 42.100,184.106 42.242,184.083 42.333 C 184.060 42.425,184.032 42.754,184.021 43.065 C 184.005 43.493,183.930 43.624,183.708 43.606 C 183.525 43.592,183.425 43.692,183.440 43.875 C 183.453 44.035,183.403 44.167,183.329 44.167 C 183.256 44.167,183.211 44.410,183.231 44.708 C 183.273 45.368,183.072 45.833,182.744 45.833 C 182.566 45.833,182.500 46.036,182.500 46.587 C 182.500 47.234,182.442 47.364,182.093 47.496 C 181.855 47.587,181.694 47.775,181.706 47.950 C 181.748 48.594,181.471 49.504,181.187 49.656 C 180.992 49.760,180.880 50.026,180.865 50.419 C 180.851 50.787,180.716 51.132,180.519 51.303 C 180.302 51.491,180.166 51.880,180.107 52.484 C 180.025 53.332,179.773 53.752,179.462 53.560 C 179.387 53.513,179.336 53.537,179.349 53.613 C 179.480 54.367,179.299 55.129,178.952 55.287 C 178.668 55.417,178.560 55.620,178.529 56.087 C 178.482 56.783,178.220 57.386,178.019 57.262 C 177.948 57.218,177.881 57.272,177.872 57.382 C 177.862 57.493,177.817 57.808,177.772 58.083 C 177.727 58.358,177.684 58.677,177.678 58.792 C 177.672 58.906,177.554 59.000,177.417 59.000 C 177.279 59.000,177.157 59.075,177.146 59.167 C 177.134 59.258,177.106 59.408,177.083 59.500 C 177.060 59.592,177.032 59.958,177.021 60.315 C 177.005 60.805,176.934 60.957,176.728 60.940 C 176.448 60.916,176.362 61.129,176.217 62.202 C 176.159 62.627,176.029 62.854,175.804 62.926 C 175.614 62.986,175.513 63.127,175.564 63.260 C 175.612 63.386,175.596 63.524,175.528 63.566 C 175.459 63.609,175.384 63.926,175.361 64.272 C 175.315 64.949,175.059 65.390,174.803 65.231 C 174.716 65.177,174.658 65.234,174.675 65.358 C 174.783 66.140,174.650 67.029,174.439 66.948 C 174.210 66.860,173.833 67.778,173.833 68.425 C 173.833 68.592,173.665 68.908,173.458 69.128 C 173.199 69.404,173.080 69.741,173.072 70.222 C 173.066 70.604,173.013 70.879,172.954 70.833 C 172.731 70.658,172.392 71.403,172.359 72.144 C 172.334 72.691,172.223 73.001,171.980 73.206 C 171.728 73.418,171.611 73.765,171.544 74.501 C 171.464 75.387,171.416 75.496,171.143 75.409 C 170.973 75.355,170.827 75.372,170.819 75.447 C 170.811 75.522,170.769 75.958,170.727 76.417 C 170.685 76.875,170.579 77.275,170.492 77.306 C 170.405 77.336,170.333 77.467,170.333 77.597 C 170.333 77.727,170.258 77.833,170.167 77.833 C 170.075 77.833,170.000 78.159,170.000 78.557 C 170.000 79.167,169.935 79.310,169.582 79.470 C 169.353 79.575,169.174 79.718,169.185 79.789 C 169.262 80.263,169.142 81.838,169.034 81.771 C 168.613 81.511,168.394 82.046,168.350 83.439 C 168.338 83.813,168.239 83.986,168.000 84.048 C 167.686 84.130,167.535 84.909,167.658 85.808 C 167.675 85.932,167.612 85.986,167.518 85.928 C 167.277 85.779,166.833 86.711,166.833 87.368 C 166.833 87.747,166.724 87.988,166.486 88.137 C 166.289 88.260,166.179 88.457,166.231 88.593 C 166.281 88.725,166.260 88.833,166.183 88.833 C 166.106 88.833,166.044 88.965,166.045 89.125 C 166.048 89.995,165.969 90.319,165.667 90.667 C 165.483 90.878,165.321 91.208,165.305 91.401 C 165.243 92.153,165.227 92.265,165.112 92.708 C 165.047 92.960,164.916 93.167,164.820 93.167 C 164.725 93.167,164.693 93.242,164.750 93.333 C 164.807 93.425,164.788 93.500,164.708 93.500 C 164.628 93.500,164.544 93.850,164.522 94.278 C 164.480 95.099,164.238 95.731,164.019 95.595 C 163.948 95.551,163.880 95.605,163.870 95.716 C 163.779 96.688,163.558 97.491,163.277 97.872 C 163.058 98.169,162.923 98.655,162.887 99.271 C 162.852 99.881,162.741 100.280,162.574 100.403 C 162.268 100.626,162.197 100.942,162.179 102.135 C 162.172 102.621,162.100 102.978,162.018 102.928 C 161.790 102.787,161.333 103.892,161.333 104.584 C 161.333 104.995,161.198 105.363,160.930 105.681 C 160.589 106.087,160.528 106.331,160.537 107.264 C 160.543 107.871,160.480 108.416,160.399 108.476 C 160.028 108.745,159.833 109.414,159.833 110.424 C 159.833 111.080,159.769 111.480,159.674 111.421 C 159.358 111.226,159.000 112.304,159.000 113.452 C 159.000 114.410,158.939 114.652,158.611 115.006 C 158.286 115.357,158.216 115.630,158.183 116.671 C 158.152 117.634,158.070 117.995,157.822 118.261 C 157.414 118.696,157.410 119.104,157.810 119.209 C 158.503 119.390,158.862 120.805,158.429 121.643 C 158.294 121.904,158.113 123.078,158.012 124.345 C 157.913 125.578,157.722 127.111,157.586 127.751 C 157.450 128.392,157.338 129.411,157.336 130.016 C 157.334 130.906,157.269 131.173,156.995 131.421 C 156.266 132.081,156.610 142.031,157.346 141.575 C 157.437 141.519,157.500 142.303,157.500 143.481 C 157.500 145.273,157.534 145.505,157.824 145.708 C 158.094 145.897,158.153 146.160,158.181 147.300 C 158.203 148.207,158.289 148.727,158.438 148.851 C 158.562 148.954,158.622 149.104,158.572 149.186 C 158.521 149.267,158.597 149.333,158.740 149.333 C 158.940 149.333,159.000 149.522,159.000 150.156 C 159.000 151.151,159.235 151.833,159.579 151.833 C 159.781 151.833,159.833 152.056,159.833 152.911 C 159.833 153.897,160.187 154.591,160.520 154.258 C 160.555 154.223,160.558 154.515,160.527 154.907 C 160.480 155.494,160.539 155.674,160.864 155.935 C 161.133 156.151,161.274 156.460,161.312 156.916 C 161.381 157.765,161.602 158.181,161.919 158.059 C 162.118 157.983,162.167 158.131,162.167 158.816 C 162.167 159.556,162.210 159.667,162.500 159.667 C 162.824 159.667,162.909 159.885,162.842 160.543 C 162.810 160.859,163.198 161.333,163.488 161.333 C 163.653 161.333,163.714 161.623,163.711 162.377 C 163.710 162.548,163.875 162.713,164.105 162.770 C 164.422 162.850,164.500 162.979,164.500 163.425 C 164.500 163.777,164.613 164.061,164.809 164.199 C 165.112 164.412,165.437 165.112,165.362 165.389 C 165.341 165.466,165.476 165.568,165.662 165.617 C 165.988 165.702,166.069 165.856,166.014 166.287 C 165.999 166.399,166.178 166.538,166.410 166.597 C 166.730 166.677,166.833 166.811,166.833 167.145 C 166.833 167.401,166.969 167.671,167.157 167.788 C 167.334 167.899,167.605 168.254,167.758 168.577 C 167.911 168.900,168.101 169.124,168.180 169.075 C 168.259 169.026,168.371 169.177,168.430 169.410 C 168.488 169.643,168.645 169.833,168.778 169.833 C 168.911 169.833,168.973 169.908,168.917 170.000 C 168.860 170.092,168.893 170.167,168.990 170.167 C 169.087 170.167,169.167 170.282,169.167 170.422 C 169.167 170.563,169.373 170.899,169.625 171.169 C 170.425 172.027,170.667 172.330,170.667 172.472 C 170.667 172.548,170.838 172.702,171.048 172.814 C 171.257 172.926,171.502 173.183,171.591 173.384 C 171.686 173.598,171.874 173.730,172.043 173.701 C 172.234 173.669,172.333 173.760,172.333 173.966 C 172.333 174.139,172.520 174.365,172.751 174.470 C 172.981 174.575,173.150 174.753,173.126 174.866 C 173.103 174.979,173.253 175.148,173.460 175.242 C 173.667 175.337,173.878 175.546,173.929 175.707 C 173.981 175.868,174.132 176.000,174.265 176.000 C 174.398 176.000,174.593 176.188,174.697 176.417 C 174.801 176.646,175.011 176.833,175.163 176.833 C 175.315 176.833,175.603 177.021,175.802 177.250 C 176.001 177.479,176.285 177.667,176.433 177.667 C 176.608 177.667,176.668 177.757,176.603 177.925 C 176.546 178.075,176.574 178.141,176.670 178.081 C 176.761 178.025,176.953 178.096,177.097 178.239 C 177.240 178.383,177.464 178.500,177.595 178.500 C 177.726 178.500,177.833 178.650,177.833 178.833 C 177.833 179.059,177.944 179.167,178.179 179.167 C 178.496 179.167,179.196 179.663,178.887 179.669 C 178.515 179.676,179.313 179.995,179.708 179.997 C 180.074 179.999,180.167 180.077,180.167 180.381 C 180.167 180.747,180.264 180.797,181.118 180.871 C 181.228 180.881,181.283 180.946,181.240 181.016 C 181.108 181.230,181.878 181.667,182.388 181.667 C 182.720 181.667,182.843 181.735,182.784 181.889 C 182.737 182.011,182.785 182.121,182.891 182.132 C 183.500 182.199,184.128 182.430,184.636 182.775 C 185.006 183.026,185.455 183.167,185.884 183.167 C 186.254 183.167,186.508 183.214,186.450 183.272 C 186.180 183.542,186.675 183.958,187.204 183.906 C 187.842 183.844,188.343 183.961,188.288 184.160 C 188.267 184.237,188.325 184.315,188.417 184.333 C 188.508 184.351,188.699 184.428,188.840 184.504 C 188.982 184.579,189.617 184.660,190.253 184.683 C 191.339 184.722,191.896 184.922,191.723 185.208 C 191.681 185.277,191.745 185.345,191.865 185.359 C 191.985 185.373,192.158 185.402,192.250 185.423 C 192.342 185.444,193.756 185.470,195.393 185.481 C 197.889 185.497,198.354 185.538,198.278 185.737 C 198.210 185.915,198.307 185.958,198.677 185.911 C 198.946 185.877,199.167 185.925,199.167 186.018 C 199.167 186.110,199.250 186.135,199.351 186.072 C 199.480 185.993,199.469 185.917,199.314 185.822 C 198.892 185.561,199.275 185.519,202.398 185.489 C 205.516 185.459,206.357 185.387,206.021 185.179 C 205.917 185.115,205.985 184.986,206.191 184.857 C 206.474 184.680,206.513 184.681,206.410 184.863 C 206.309 185.040,206.328 185.043,206.509 184.875 C 206.633 184.760,207.151 184.667,207.668 184.667 C 208.391 184.667,208.724 184.577,209.142 184.268 C 209.541 183.974,209.858 183.881,210.353 183.915 C 210.927 183.954,211.045 183.903,211.174 183.563 C 211.293 183.250,211.457 183.161,211.954 183.141 C 213.039 183.098,213.085 183.083,213.035 182.790 C 213.000 182.583,213.064 182.535,213.271 182.614 C 213.463 182.688,213.516 182.660,213.434 182.528 C 213.352 182.396,213.477 182.333,213.823 182.333 C 214.111 182.333,214.479 182.188,214.667 182.000 C 214.850 181.817,215.000 181.704,215.000 181.749 C 215.000 181.867,216.385 181.314,216.583 181.117 C 216.694 181.007,216.666 180.995,216.500 181.083 C 216.307 181.186,216.293 181.169,216.442 181.008 C 216.547 180.894,216.828 180.789,217.066 180.775 C 217.397 180.756,217.500 180.661,217.500 180.375 C 217.500 180.076,217.594 180.000,217.963 180.000 C 218.576 180.000,219.292 179.515,218.975 179.315 C 218.810 179.210,218.846 179.171,219.111 179.169 C 219.615 179.166,220.015 178.992,219.910 178.823 C 219.817 178.673,220.820 178.071,221.054 178.137 C 221.130 178.158,221.146 178.102,221.091 178.012 C 220.964 177.808,221.613 177.447,221.848 177.592 C 221.951 177.656,222.001 177.573,221.969 177.392 C 221.933 177.180,222.086 177.005,222.455 176.833 C 222.751 176.696,222.994 176.488,222.996 176.371 C 222.998 176.254,223.186 176.088,223.413 176.001 C 223.668 175.904,223.793 175.754,223.737 175.611 C 223.683 175.468,223.785 175.341,224.003 175.284 C 224.198 175.233,224.398 175.040,224.446 174.855 C 224.494 174.670,224.695 174.496,224.892 174.468 C 225.119 174.435,225.270 174.276,225.305 174.032 C 225.335 173.821,225.446 173.677,225.553 173.712 C 225.775 173.786,226.167 173.445,226.167 173.179 C 226.167 173.015,226.396 172.931,226.708 172.980 C 226.777 172.991,226.824 172.944,226.814 172.875 C 226.745 172.439,226.887 172.189,227.257 172.097 C 227.490 172.038,227.647 171.936,227.606 171.870 C 227.565 171.804,227.671 171.487,227.842 171.167 C 228.013 170.846,228.156 170.677,228.160 170.792 C 228.164 170.906,228.246 171.000,228.343 171.000 C 228.440 171.000,228.477 170.931,228.425 170.847 C 228.271 170.597,228.638 169.833,228.913 169.833 C 229.052 169.833,229.167 169.726,229.167 169.595 C 229.167 169.279,229.652 168.805,229.851 168.928 C 229.937 168.981,229.998 168.963,229.984 168.887 C 229.909 168.451,230.017 167.936,230.144 168.135 C 230.331 168.430,230.833 167.668,230.833 167.089 C 230.833 166.758,230.917 166.667,231.222 166.667 C 231.444 166.667,231.623 166.560,231.639 166.417 C 231.654 166.279,231.679 166.057,231.694 165.924 C 231.710 165.791,231.777 165.715,231.843 165.756 C 232.016 165.863,232.500 165.073,232.500 164.684 C 232.500 164.502,232.649 164.309,232.833 164.250 C 233.090 164.169,233.167 163.998,233.167 163.507 C 233.167 162.966,233.230 162.854,233.583 162.765 C 233.938 162.676,234.000 162.564,234.000 162.015 C 234.000 161.476,234.065 161.353,234.393 161.271 C 234.664 161.203,234.785 161.054,234.783 160.794 C 234.774 159.949,234.845 159.667,235.066 159.667 C 235.346 159.667,235.500 159.308,235.500 158.653 C 235.500 158.386,235.580 158.167,235.679 158.167 C 236.001 158.167,236.254 157.760,236.301 157.167 C 236.357 156.463,236.650 155.833,236.922 155.833 C 237.037 155.833,237.101 155.652,237.074 155.404 C 237.009 154.816,237.315 154.000,237.600 154.000 C 237.776 154.000,237.833 153.735,237.833 152.917 C 237.833 151.934,237.865 151.833,238.177 151.833 C 238.365 151.833,238.477 151.764,238.424 151.678 C 238.371 151.593,238.404 151.476,238.497 151.418 C 238.590 151.361,238.667 150.860,238.667 150.306 C 238.667 149.418,238.702 149.310,238.958 149.399 C 239.201 149.484,239.196 149.459,238.926 149.250 C 238.621 149.014,238.745 148.902,239.221 148.984 C 239.296 148.998,239.311 148.931,239.253 148.837 C 239.194 148.744,239.208 148.666,239.282 148.666 C 239.356 148.666,239.440 148.086,239.468 147.377 C 239.505 146.460,239.601 145.998,239.799 145.779 C 240.129 145.415,240.109 145.557,240.141 143.282 C 240.159 142.053,240.223 141.515,240.345 141.590 C 240.443 141.651,240.564 141.543,240.614 141.350 C 240.664 141.158,240.772 141.000,240.853 141.000 C 241.202 141.000,241.025 131.834,240.667 131.379 C 240.395 131.033,240.333 130.703,240.333 129.587 C 240.333 128.826,240.220 127.857,240.078 127.401 C 239.938 126.952,239.782 125.758,239.733 124.750 C 239.676 123.591,239.516 122.509,239.297 121.809 C 238.903 120.551,239.098 119.581,239.810 119.252 C 240.258 119.045,240.264 118.708,239.827 118.243 C 239.567 117.967,239.470 117.590,239.413 116.649 C 239.372 115.971,239.305 115.267,239.265 115.083 C 239.225 114.900,239.186 114.694,239.179 114.625 C 239.172 114.556,239.087 114.500,238.990 114.500 C 238.893 114.500,238.867 114.594,238.931 114.708 C 239.013 114.853,238.993 114.865,238.865 114.749 C 238.764 114.657,238.667 113.991,238.651 113.269 C 238.624 112.119,238.572 111.915,238.227 111.615 C 237.899 111.330,237.833 111.114,237.833 110.314 C 237.833 109.358,237.616 108.508,237.326 108.329 C 237.242 108.277,237.139 107.750,237.097 107.159 C 237.056 106.567,237.017 106.027,237.011 105.958 C 237.005 105.890,236.896 105.833,236.768 105.833 C 236.457 105.833,236.334 105.464,236.331 104.528 C 236.328 103.580,236.180 102.972,235.981 103.095 C 235.900 103.145,235.833 103.102,235.833 103.000 C 235.833 102.898,235.758 102.860,235.667 102.917 C 235.562 102.981,235.500 102.617,235.500 101.940 C 235.500 100.712,235.398 100.333,235.066 100.333 C 234.838 100.333,234.802 100.173,234.767 99.000 C 234.758 98.679,234.713 98.379,234.667 98.333 C 234.178 97.845,234.004 97.314,233.804 95.708 C 233.789 95.594,233.741 95.537,233.696 95.582 C 233.448 95.830,233.167 95.200,233.167 94.396 C 233.167 93.877,233.093 93.500,232.990 93.500 C 232.893 93.500,232.855 93.433,232.906 93.351 C 232.957 93.269,232.903 93.165,232.786 93.120 C 232.595 93.047,232.540 92.796,232.435 91.547 C 232.418 91.344,232.239 90.954,232.036 90.679 C 231.808 90.371,231.667 89.939,231.666 89.548 C 231.666 89.115,231.535 88.765,231.250 88.432 C 230.960 88.095,230.833 87.751,230.833 87.300 C 230.833 86.831,230.718 86.536,230.417 86.235 C 230.082 85.900,230.000 85.652,230.000 84.977 C 230.000 84.276,229.944 84.121,229.667 84.048 C 229.483 84.000,229.330 83.839,229.325 83.689 C 229.279 82.190,229.037 81.521,228.633 81.771 C 228.560 81.816,228.500 81.522,228.500 81.118 C 228.500 80.201,228.209 79.333,227.900 79.333 C 227.736 79.333,227.667 79.120,227.667 78.615 C 227.667 78.113,227.560 77.782,227.314 77.517 C 226.999 77.179,226.939 76.920,226.841 75.474 C 226.837 75.414,226.683 75.404,226.500 75.452 C 226.197 75.531,226.167 75.457,226.167 74.632 C 226.167 73.880,226.095 73.658,225.750 73.333 C 225.426 73.029,225.332 72.773,225.328 72.179 C 225.323 71.444,224.999 70.723,224.775 70.947 C 224.716 71.007,224.655 70.912,224.641 70.736 C 224.627 70.560,224.598 70.342,224.577 70.250 C 224.556 70.158,224.530 69.908,224.519 69.693 C 224.507 69.452,224.372 69.269,224.167 69.215 C 223.893 69.143,223.833 68.988,223.833 68.342 C 223.833 67.909,223.777 67.499,223.708 67.431 C 223.640 67.362,223.583 67.218,223.583 67.111 C 223.583 67.004,223.471 66.917,223.333 66.917 C 223.161 66.917,223.068 66.709,223.033 66.250 C 223.005 65.878,222.862 65.491,222.710 65.375 C 222.559 65.260,222.507 65.166,222.593 65.164 C 222.679 65.163,222.637 65.090,222.500 65.004 C 222.349 64.908,222.240 64.561,222.224 64.131 C 222.210 63.738,222.191 63.328,222.182 63.220 C 222.174 63.111,222.017 62.975,221.833 62.917 C 221.587 62.839,221.500 62.664,221.500 62.251 C 221.500 61.943,221.401 61.591,221.280 61.470 C 221.159 61.349,221.027 61.175,220.988 61.083 C 220.949 60.992,220.860 60.935,220.792 60.958 C 220.723 60.981,220.667 60.669,220.667 60.264 C 220.667 59.369,220.540 59.000,220.232 59.000 C 220.101 59.000,219.991 58.818,219.979 58.583 C 219.968 58.354,219.949 58.034,219.938 57.871 C 219.926 57.709,219.748 57.394,219.542 57.173 C 219.335 56.952,219.157 56.597,219.146 56.385 C 219.134 56.173,219.106 55.925,219.083 55.833 C 219.060 55.742,219.032 55.597,219.021 55.511 C 219.009 55.426,218.850 55.308,218.667 55.250 C 218.399 55.165,218.333 54.998,218.333 54.398 C 218.333 53.824,218.237 53.555,217.917 53.235 C 217.600 52.918,217.500 52.644,217.500 52.095 C 217.500 51.512,217.435 51.355,217.167 51.285 C 216.934 51.224,216.833 51.058,216.833 50.736 C 216.833 50.052,216.464 49.145,216.223 49.237 C 216.079 49.293,216.002 49.056,215.967 48.450 C 215.926 47.737,215.850 47.554,215.542 47.419 C 215.240 47.286,215.167 47.120,215.167 46.563 C 215.167 46.012,215.099 45.855,214.833 45.785 C 214.599 45.724,214.500 45.557,214.499 45.224 C 214.497 44.384,214.168 43.464,213.905 43.565 C 213.723 43.634,213.667 43.502,213.667 43.008 C 213.667 42.146,213.529 41.833,213.149 41.833 C 212.894 41.833,212.833 41.710,212.833 41.194 C 212.833 40.843,212.777 40.499,212.708 40.431 C 212.640 40.362,212.580 40.218,212.576 40.111 C 212.572 40.004,212.478 39.935,212.367 39.958 C 212.257 39.981,212.155 39.869,212.141 39.708 C 212.127 39.548,212.098 39.342,212.077 39.250 C 212.056 39.158,212.030 38.870,212.019 38.609 C 212.006 38.285,211.895 38.108,211.667 38.048 C 211.418 37.983,211.333 37.821,211.333 37.411 C 211.333 36.645,211.184 36.333,210.816 36.333 C 210.554 36.333,210.500 36.208,210.500 35.601 C 210.500 35.091,210.421 34.839,210.239 34.769 C 210.096 34.714,210.021 34.601,210.072 34.519 C 210.123 34.436,210.044 34.322,209.895 34.265 C 209.695 34.188,209.652 34.032,209.727 33.654 C 209.808 33.254,209.742 33.060,209.414 32.733 C 209.147 32.465,208.999 32.128,208.997 31.784 C 208.995 31.252,208.809 30.792,208.606 30.819 C 208.235 30.869,208.167 30.756,208.167 30.093 C 208.167 29.564,208.079 29.290,207.860 29.134 C 207.684 29.010,207.503 28.600,207.436 28.175 C 207.311 27.386,207.057 26.945,206.814 27.095 C 206.685 27.175,206.619 26.734,206.622 25.795 C 206.622 25.637,206.563 25.545,206.489 25.590 C 206.416 25.635,206.309 25.595,206.250 25.500 C 206.191 25.405,206.074 25.371,205.988 25.424 C 205.902 25.477,205.833 25.194,205.833 24.779 C 205.833 24.173,205.758 23.989,205.417 23.765 C 205.088 23.550,205.000 23.353,205.000 22.829 C 205.000 22.363,204.929 22.167,204.760 22.167 C 204.628 22.167,204.466 22.080,204.401 21.974 C 204.320 21.844,204.357 21.827,204.516 21.923 C 204.713 22.042,204.715 22.021,204.528 21.790 C 204.334 21.551,204.218 21.136,204.134 20.377 C 204.121 20.264,203.974 20.128,203.806 20.075 C 203.580 20.003,203.500 19.812,203.500 19.343 C 203.500 18.740,203.286 18.376,202.917 18.350 C 202.825 18.344,202.727 18.000,202.699 17.586 C 202.658 16.969,202.590 16.833,202.324 16.833 C 202.074 16.833,202.000 16.717,202.000 16.322 C 202.000 15.752,201.734 15.152,201.392 14.950 C 201.268 14.877,201.166 14.614,201.164 14.367 C 201.161 13.628,200.983 13.184,200.649 13.078 C 200.412 13.003,200.333 12.819,200.333 12.342 C 200.333 11.887,200.236 11.643,199.991 11.479 C 199.802 11.353,199.627 11.100,199.601 10.917 C 199.548 10.544,198.292 10.329,198.089 10.658 " stroke="none" fill="#0084ff" fill-rule="evenodd"></path><path id="path4" d="M195.097 16.441 C 195.039 16.591,195.030 16.752,195.075 16.798 C 195.208 16.930,195.673 16.478,195.572 16.314 C 195.429 16.083,195.212 16.141,195.097 16.441 M202.261 16.513 C 202.617 16.906,202.707 16.916,202.637 16.557 C 202.608 16.406,202.446 16.261,202.277 16.237 C 201.986 16.194,201.985 16.207,202.261 16.513 M192.133 23.367 C 192.289 23.522,192.378 23.522,192.533 23.367 C 192.689 23.211,192.644 23.167,192.333 23.167 C 192.022 23.167,191.978 23.211,192.133 23.367 M205.347 23.514 C 205.538 23.705,205.744 23.807,205.806 23.741 C 205.867 23.675,205.822 23.587,205.707 23.546 C 205.592 23.505,205.540 23.403,205.592 23.319 C 205.644 23.235,205.532 23.167,205.343 23.167 L 205.000 23.167 205.347 23.514 M189.672 28.788 C 189.454 29.034,189.460 29.051,189.727 28.948 C 189.892 28.885,190.059 28.833,190.097 28.833 C 190.135 28.833,190.167 28.758,190.167 28.667 C 190.167 28.421,189.951 28.475,189.672 28.788 M207.763 28.809 C 207.939 28.979,208.111 29.046,208.145 28.957 C 208.209 28.789,207.868 28.507,207.596 28.503 C 207.511 28.501,207.586 28.639,207.763 28.809 M182.700 45.200 C 182.331 45.569,182.455 45.926,182.833 45.583 C 183.176 45.273,183.269 45.000,183.033 45.000 C 182.960 45.000,182.810 45.090,182.700 45.200 M214.500 45.133 C 214.500 45.309,214.862 45.667,215.039 45.667 C 215.116 45.667,215.098 45.517,215.000 45.333 C 214.824 45.004,214.500 44.875,214.500 45.133 M181.006 49.156 C 180.911 49.333,180.836 49.577,180.838 49.697 C 180.841 49.818,180.926 49.767,181.026 49.583 C 181.126 49.400,181.326 49.156,181.469 49.042 C 181.705 48.854,181.703 48.833,181.454 48.833 C 181.303 48.833,181.101 48.978,181.006 49.156 M216.260 49.070 C 216.609 49.325,216.767 49.297,216.590 49.011 C 216.530 48.913,216.358 48.833,216.208 48.833 C 215.981 48.833,215.989 48.872,216.260 49.070 M176.407 60.745 C 176.229 60.879,176.158 60.989,176.250 60.989 C 176.342 60.989,176.562 60.879,176.740 60.745 C 176.918 60.610,176.989 60.500,176.897 60.500 C 176.805 60.500,176.585 60.610,176.407 60.745 M221.048 60.875 C 221.251 61.081,221.443 61.191,221.474 61.119 C 221.558 60.928,221.163 60.500,220.902 60.500 C 220.758 60.500,220.810 60.634,221.048 60.875 M174.743 64.678 C 174.548 64.994,174.833 65.072,175.123 64.782 C 175.383 64.522,175.383 64.500,175.129 64.500 C 174.977 64.500,174.804 64.580,174.743 64.678 M222.617 64.901 C 222.782 65.122,222.942 65.232,222.974 65.146 C 223.076 64.868,222.852 64.500,222.581 64.500 C 222.351 64.500,222.356 64.551,222.617 64.901 M173.378 68.710 C 172.971 69.237,172.950 69.372,173.304 69.182 C 173.493 69.081,173.691 68.929,173.743 68.844 C 173.893 68.602,173.557 68.479,173.378 68.710 M223.833 68.637 C 223.833 68.712,224.021 68.936,224.250 69.136 C 224.717 69.542,224.733 69.529,224.504 68.928 C 224.356 68.538,223.833 68.312,223.833 68.637 M171.111 74.944 C 170.919 75.136,170.990 75.333,171.250 75.333 C 171.387 75.333,171.500 75.221,171.500 75.083 C 171.500 74.823,171.303 74.753,171.111 74.944 M226.167 75.069 C 226.167 75.215,226.285 75.333,226.431 75.333 C 226.576 75.333,226.665 75.244,226.628 75.135 C 226.525 74.826,226.167 74.775,226.167 75.069 M168.046 83.542 C 167.678 84.018,167.667 84.135,168.000 84.048 C 168.184 84.000,168.333 83.821,168.333 83.647 C 168.333 83.280,168.268 83.256,168.046 83.542 M229.333 83.646 C 229.333 83.850,229.440 84.000,229.583 84.000 C 229.721 84.000,229.833 83.934,229.833 83.854 C 229.833 83.773,229.721 83.614,229.583 83.500 C 229.374 83.327,229.333 83.351,229.333 83.646 M167.059 85.793 C 167.119 85.891,167.082 86.000,166.976 86.036 C 166.870 86.071,166.820 86.209,166.864 86.341 C 166.924 86.523,166.992 86.492,167.139 86.218 C 167.287 85.942,167.287 85.825,167.141 85.734 C 167.027 85.664,166.993 85.688,167.059 85.793 M230.347 86.014 C 230.538 86.205,230.744 86.307,230.806 86.241 C 230.867 86.175,230.822 86.087,230.707 86.046 C 230.592 86.005,230.540 85.903,230.592 85.819 C 230.644 85.735,230.532 85.667,230.343 85.667 L 230.000 85.667 230.347 86.014 M166.259 88.157 C 166.098 88.335,166.005 88.579,166.053 88.699 C 166.111 88.844,166.145 88.823,166.154 88.634 C 166.161 88.479,166.333 88.235,166.537 88.093 C 166.741 87.950,166.827 87.833,166.730 87.833 C 166.632 87.833,166.420 87.979,166.259 88.157 M231.036 88.010 C 231.194 88.102,231.398 88.306,231.490 88.464 C 231.581 88.621,231.659 88.662,231.662 88.554 C 231.668 88.300,231.200 87.832,230.946 87.838 C 230.838 87.841,230.879 87.919,231.036 88.010 M232.867 92.992 C 233.097 93.361,233.259 93.315,233.109 92.924 C 233.055 92.782,232.932 92.667,232.837 92.667 C 232.727 92.667,232.739 92.786,232.867 92.992 M233.505 95.125 C 233.514 95.337,234.000 95.909,234.000 95.708 C 234.000 95.605,233.924 95.473,233.831 95.415 C 233.737 95.357,233.704 95.240,233.757 95.155 C 233.810 95.070,233.774 95.000,233.677 95.000 C 233.579 95.000,233.502 95.056,233.505 95.125 M163.076 97.511 C 163.016 97.609,163.007 97.729,163.056 97.778 C 163.175 97.897,163.500 97.687,163.500 97.490 C 163.500 97.277,163.212 97.291,163.076 97.511 M234.167 97.466 C 234.167 97.554,234.288 97.726,234.436 97.849 C 234.669 98.043,234.697 98.030,234.644 97.759 C 234.581 97.435,234.167 97.180,234.167 97.466 M160.813 105.278 C 160.801 105.308,160.781 105.390,160.768 105.458 C 160.755 105.527,160.678 105.696,160.596 105.833 C 160.513 105.971,160.646 105.902,160.890 105.679 C 161.134 105.457,161.333 105.263,161.333 105.249 C 161.333 105.196,160.833 105.224,160.813 105.278 M236.595 105.513 C 236.949 105.904,236.982 105.908,236.930 105.556 C 236.907 105.403,236.757 105.258,236.597 105.235 C 236.319 105.194,236.319 105.208,236.595 105.513 M157.757 117.822 C 157.643 118.006,157.906 118.205,158.060 118.051 C 158.219 117.893,158.189 117.667,158.010 117.667 C 157.924 117.667,157.810 117.736,157.757 117.822 M239.513 117.766 C 239.506 117.866,239.650 118.084,239.833 118.250 C 240.022 118.421,240.167 118.468,240.167 118.359 C 240.167 118.253,240.087 118.167,239.990 118.167 C 239.893 118.167,239.867 118.080,239.933 117.974 C 240.003 117.861,239.979 117.827,239.873 117.892 C 239.775 117.953,239.657 117.908,239.611 117.793 C 239.562 117.673,239.521 117.661,239.513 117.766 M157.500 145.922 C 157.500 146.062,157.616 146.222,157.757 146.276 C 158.134 146.420,158.154 146.291,157.806 145.958 C 157.547 145.712,157.500 145.706,157.500 145.922 M239.792 146.028 C 239.545 146.286,239.539 146.333,239.755 146.333 C 239.896 146.333,240.055 146.218,240.109 146.076 C 240.254 145.699,240.124 145.680,239.792 146.028 M162.232 159.930 C 162.288 160.075,162.333 160.225,162.333 160.264 C 162.333 160.302,162.446 160.333,162.583 160.333 C 162.885 160.333,162.906 160.139,162.633 159.867 C 162.349 159.582,162.113 159.619,162.232 159.930 M234.997 159.921 C 234.881 160.060,234.832 160.221,234.889 160.278 C 235.010 160.399,235.500 160.026,235.500 159.813 C 235.500 159.583,235.228 159.642,234.997 159.921 M162.948 161.320 C 163.000 161.516,163.182 161.752,163.354 161.844 C 163.795 162.081,163.742 161.796,163.261 161.343 C 162.858 160.965,162.855 160.965,162.948 161.320 M234.200 161.533 C 233.885 161.848,233.966 162.030,234.333 161.833 C 234.517 161.735,234.667 161.583,234.667 161.494 C 234.667 161.273,234.441 161.292,234.200 161.533 M176.285 178.000 C 176.333 178.183,176.475 178.333,176.601 178.333 C 176.776 178.333,176.763 178.255,176.545 178.000 C 176.388 177.817,176.245 177.667,176.229 177.667 C 176.212 177.667,176.237 177.817,176.285 178.000 M221.122 178.000 C 220.903 178.255,220.890 178.333,221.066 178.333 C 221.191 178.333,221.334 178.183,221.382 178.000 C 221.430 177.817,221.455 177.667,221.438 177.667 C 221.421 177.667,221.279 177.817,221.122 178.000 M184.011 182.614 C 184.000 182.966,184.569 183.320,184.790 183.099 C 184.845 183.044,184.761 183.000,184.606 183.000 C 184.450 183.000,184.255 182.831,184.172 182.625 L 184.021 182.250 184.011 182.614 M213.519 182.533 C 213.509 182.689,213.369 182.893,213.208 182.987 C 213.048 183.080,212.992 183.158,213.083 183.159 C 213.428 183.164,213.697 182.866,213.619 182.563 C 213.552 182.302,213.535 182.297,213.519 182.533 M185.833 183.314 C 185.833 183.395,186.012 183.579,186.230 183.722 C 186.619 183.977,186.623 183.974,186.438 183.575 C 186.259 183.188,185.833 183.004,185.833 183.314 M211.333 183.431 C 211.333 183.725,211.692 183.674,211.795 183.365 C 211.831 183.256,211.742 183.167,211.597 183.167 C 211.452 183.167,211.333 183.285,211.333 183.431 M209.292 184.361 C 209.045 184.620,209.039 184.667,209.255 184.667 C 209.396 184.667,209.555 184.551,209.609 184.409 C 209.754 184.033,209.624 184.013,209.292 184.361 M206.292 185.194 C 206.070 185.427,206.055 185.500,206.232 185.500 C 206.360 185.500,206.512 185.377,206.569 185.226 C 206.715 184.846,206.633 184.837,206.292 185.194 " stroke="none" fill="#0000ff" fill-rule="evenodd"></path></g></svg>